<svg width="52" height="52" viewBox="0 0 52 52" fill="none" xmlns="http://www.w3.org/2000/svg">
  <path d="M30.644 34.7528L11.1755 11.8361C10.733 11.4195 11.1755 11.0028 11.6179 11.0028H48.3427C48.7852 11.0028 49.2276 11.4195 48.7852 11.8361L30.644 34.7528Z" stroke="#201E21" stroke-width="2" stroke-miterlimit="10"/>
  <path d="M30.6455 34.7472V47.2472" stroke="#201E21" stroke-width="2" stroke-miterlimit="10"/>
  <path d="M21.7979 50.1639C21.7979 48.4972 23.5677 47.2472 25.3376 47.2472H35.5143C37.7267 47.2472 39.0541 48.4972 39.0541 50.1639" stroke="#201E21" stroke-width="2" stroke-miterlimit="10"/>
  <path d="M17.8135 51H43.4766" stroke="#201E21" stroke-width="2" stroke-miterlimit="10" stroke-linecap="round" stroke-linejoin="round"/>
  <path d="M43.0341 19.75H17.8135" stroke="#201E21" stroke-width="2" stroke-miterlimit="10"/>
  <path d="M35.5137 10.1667L39.4959 1.83333C39.4959 1.41667 40.3808 1 41.2657 1H51" stroke="#201E21" stroke-width="2" stroke-miterlimit="10" stroke-linecap="round"/>
  <path d="M17.8137 19.7556C16.0439 20.1722 14.274 20.5889 12.5041 20.5889C6.3096 20.5889 1 16.4222 1 11.4222C1 6.42224 6.3096 2.25557 12.5041 2.25557C18.2562 2.25557 23.1233 6.00557 24.0083 10.5889" stroke="#201E21" stroke-width="2" stroke-miterlimit="10"/>
</svg>
