<svg width="216" height="224" viewBox="0 0 216 224" fill="none" xmlns="http://www.w3.org/2000/svg">
<path fill-rule="evenodd" clip-rule="evenodd" d="M200.212 40.1279H15.5509C7.90811 40.1279 1.6543 46.4008 1.6543 54.0679V189.939C1.6543 197.606 7.90811 203.88 15.5509 203.88H85.8036L101.562 219.689C105.052 223.189 110.711 223.189 114.201 219.689L129.96 203.88H200.212C207.855 203.88 214.108 197.606 214.108 189.939V54.0679C214.108 46.4008 207.855 40.1279 200.212 40.1279Z" fill="#F9F9F9"/>
<path fill-rule="evenodd" clip-rule="evenodd" d="M200.212 40.1279H15.5509C7.90811 40.1279 1.6543 46.4008 1.6543 54.0679V189.939C1.6543 197.606 7.90811 203.88 15.5509 203.88H85.8036L101.562 219.689C105.052 223.189 110.711 223.189 114.201 219.689L129.96 203.88H200.212C207.855 203.88 214.108 197.606 214.108 189.939V54.0679C214.108 46.4008 207.855 40.1279 200.212 40.1279Z" stroke="#353742" stroke-width="2"/>
<path fill-rule="evenodd" clip-rule="evenodd" d="M169.093 131.222C169.093 165.135 141.688 192.628 107.882 192.628C74.0753 192.628 46.6699 165.135 46.6699 131.222C46.6699 97.3076 74.0753 69.8149 107.882 69.8149C141.688 69.8149 169.093 97.3076 169.093 131.222Z" fill="#E8E5EE"/>
<path fill-rule="evenodd" clip-rule="evenodd" d="M102.59 180.268L97.4219 194.357H116.246L108.973 177.619L102.59 180.268Z" fill="#D30922"/>
<path fill-rule="evenodd" clip-rule="evenodd" d="M102.59 180.268L97.4219 194.357H116.246L108.973 177.619L102.59 180.268Z" stroke="#48474C" stroke-width="1.519"/>
<path fill-rule="evenodd" clip-rule="evenodd" d="M102.592 180.268L98.0073 175.669C96.0184 173.674 96.0184 170.438 98.0073 168.443L102.592 163.844C104.58 161.849 107.806 161.849 109.795 163.844L114.379 168.443C116.369 170.438 116.369 173.674 114.379 175.669L109.795 180.268C107.806 182.263 104.58 182.263 102.592 180.268Z" fill="#D30922"/>
<path fill-rule="evenodd" clip-rule="evenodd" d="M102.592 180.268L98.0073 175.669C96.0184 173.674 96.0184 170.438 98.0073 168.443L102.592 163.844C104.58 161.849 107.806 161.849 109.795 163.844L114.379 168.443C116.369 170.438 116.369 173.674 114.379 175.669L109.795 180.268C107.806 182.263 104.58 182.263 102.592 180.268Z" stroke="#48474C" stroke-width="1.519"/>
<path fill-rule="evenodd" clip-rule="evenodd" d="M81.1647 143.927L74.5332 155.515L96.3531 176.546L106.407 162.382" fill="#EAEAEA"/>
<path d="M81.1647 143.927L74.5332 155.515L96.3531 176.546L106.407 162.382" stroke="#48474C" stroke-width="1.519"/>
<path fill-rule="evenodd" clip-rule="evenodd" d="M131.756 143.471L138.921 155.515L117.102 176.546L106.246 162.06" fill="#EAEAEA"/>
<path d="M131.756 143.471L138.921 155.515L117.102 176.546L106.246 162.06" stroke="#48474C" stroke-width="1.519"/>
<path fill-rule="evenodd" clip-rule="evenodd" d="M81.1641 131.909V143.927L105.585 162.382L132.077 143.068L131.663 132.768L81.1641 131.909Z" fill="#F7E4D5"/>
<path fill-rule="evenodd" clip-rule="evenodd" d="M81.1641 131.909V143.927L105.585 162.382L132.077 143.068L131.663 132.768L81.1641 131.909Z" stroke="#48474C" stroke-width="1.494"/>
<mask id="mask0" mask-type="alpha" maskUnits="userSpaceOnUse" x="60" y="0" width="96" height="80">
<path fill-rule="evenodd" clip-rule="evenodd" d="M60.4141 0.145996H155.481V79.9759H60.4141V0.145996Z" fill="white"/>
</mask>
<g mask="url(#mask0)">
<path fill-rule="evenodd" clip-rule="evenodd" d="M60.4141 78.2594V33.8102C60.4141 32.5651 60.6515 31.3319 61.1086 30.175C61.9931 27.9332 63.4092 24.2072 63.4092 23.3224C63.4092 22.0349 73.677 -5.43406 109.615 10.446C98.4912 0.145508 96.7803 0.145508 103.198 0.145508C109.615 0.145508 130.151 1.43297 139.136 9.15859L141.703 17.7428C141.703 17.7428 154.966 32.3354 155.393 34.4815C155.821 36.6275 154.537 79.9758 154.537 79.9758L60.4141 78.2594Z" fill="black"/>
</g>
<path fill-rule="evenodd" clip-rule="evenodd" d="M62.2893 87.8267C63.6952 95.3405 62.1406 101.939 58.8169 102.565C55.4923 103.191 51.6582 97.6077 50.2523 90.0931C48.8464 82.5803 50.401 75.9811 53.7248 75.3556C57.0494 74.7292 60.8835 80.313 62.2893 87.8267Z" fill="#F7E4D5"/>
<path fill-rule="evenodd" clip-rule="evenodd" d="M62.2893 87.8267C63.6952 95.3405 62.1406 101.939 58.8169 102.565C55.4923 103.191 51.6582 97.6077 50.2523 90.0931C48.8464 82.5803 50.401 75.9811 53.7248 75.3556C57.0494 74.7292 60.8835 80.313 62.2893 87.8267Z" stroke="#48474C" stroke-width="1.519"/>
<path fill-rule="evenodd" clip-rule="evenodd" d="M153.037 87.8267C151.632 95.3405 153.186 101.939 156.51 102.565C159.835 103.191 163.669 97.6077 165.074 90.0931C166.48 82.5803 164.926 75.9811 161.602 75.3556C158.277 74.7292 154.443 80.313 153.037 87.8267Z" fill="#F7E4D5"/>
<path fill-rule="evenodd" clip-rule="evenodd" d="M153.037 87.8267C151.632 95.3405 153.186 101.939 156.51 102.565C159.835 103.191 163.669 97.6077 165.074 90.0931C166.48 82.5803 164.926 75.9811 161.602 75.3556C158.277 74.7292 154.443 80.313 153.037 87.8267Z" stroke="#48474C" stroke-width="1.519"/>
<path fill-rule="evenodd" clip-rule="evenodd" d="M154.965 87.7019C154.965 118.517 133.703 143.498 107.475 143.498C81.2478 143.498 59.9863 118.517 59.9863 87.7019C59.9863 56.8876 81.2478 31.9062 107.475 31.9062C133.703 31.9062 154.965 56.8876 154.965 87.7019Z" fill="#F7E4D5"/>
<path fill-rule="evenodd" clip-rule="evenodd" d="M154.965 87.7019C154.965 118.517 133.703 143.498 107.475 143.498C81.2478 143.498 59.9863 118.517 59.9863 87.7019C59.9863 56.8876 81.2478 31.9062 107.475 31.9062C133.703 31.9062 154.965 56.8876 154.965 87.7019Z" stroke="#353742" stroke-width="1.519"/>
<path fill-rule="evenodd" clip-rule="evenodd" d="M88.0159 76.1516C89.3187 77.4586 89.3187 79.5775 88.0159 80.8844C86.7131 82.1914 84.6009 82.1914 83.2981 80.8844C81.9944 79.5775 81.9944 77.4586 83.2981 76.1516C84.6009 74.8446 86.7131 74.8446 88.0159 76.1516Z" fill="black"/>
<path fill-rule="evenodd" clip-rule="evenodd" d="M131.352 76.1516C132.655 77.4586 132.655 79.5775 131.352 80.8844C130.048 82.1914 127.936 82.1914 126.633 80.8844C125.331 79.5775 125.331 77.4586 126.633 76.1516C127.936 74.8446 130.048 74.8446 131.352 76.1516Z" fill="black"/>
<path d="M81.1973 65C82.2652 64.0253 83.8401 63.3481 85.6337 63.215C87.3463 63.0879 88.9347 63.4812 90.1175 64.2194" stroke="#353742" stroke-width="3.45" stroke-linecap="round" stroke-linejoin="round"/>
<path d="M124.533 65C125.601 64.0253 127.175 63.3481 128.97 63.215C130.682 63.0879 132.271 63.4812 133.453 64.2194" stroke="#353742" stroke-width="3.45" stroke-linecap="round" stroke-linejoin="round"/>
<path d="M111.616 98.5454C110.564 99.8405 109.144 100.658 107.554 100.719C105.965 100.781 104.484 100.074 103.336 98.8649" stroke="#353742" stroke-width="3.45" stroke-linecap="round" stroke-linejoin="round"/>
<path d="M116.426 120.532C114.817 122.295 111.457 123.559 107.547 123.656C103.635 123.752 100.219 122.655 98.5254 120.972" stroke="#353742" stroke-width="3.45" stroke-linecap="round" stroke-linejoin="round"/>
</svg>
