<?xml version="1.0" encoding="UTF-8"?>
<svg width="25px" height="26px" viewBox="0 0 25 26" version="1.1" xmlns="http://www.w3.org/2000/svg" xmlns:xlink="http://www.w3.org/1999/xlink">
    <!-- Generator: Sketch 51 (57462) - http://www.bohemiancoding.com/sketch -->
    <title>Group Copy</title>
    <desc>Created with Sketch.</desc>
    <defs></defs>
    <g id="Page-1" stroke="none" stroke-width="1" fill="none" fill-rule="evenodd">
        <g id="Group-Copy" stroke="#8F89A2" stroke-width="1.304">
            <path d="M3.8874,20.0853 L20.9704,20.0853" id="Stroke-1"></path>
            <g id="Group-10" transform="translate(0.000000, 0.304300)">
                <path d="M23.2116,5.2614 C22.9036,4.7024 22.4596,4.2314 21.9296,3.8754 C20.4166,2.8614 18.9216,2.5944 17.5796,2.7974 C17.3076,2.8384 17.0386,2.7324 16.8686,2.5164 C15.8376,1.1974 14.2326,0.3474 12.4296,0.3474 C10.6176,0.3474 9.0056,1.2034 7.9756,2.5334 C7.8026,2.7574 7.5236,2.8644 7.2456,2.8164 C5.9196,2.5874 4.4366,2.8224 2.9616,3.7044 C2.3946,4.0444 1.9196,4.5214 1.5866,5.0914 C-0.3574,8.4204 0.9496,11.8104 3.5026,13.2634 C3.7386,13.3984 3.8876,13.6444 3.8876,13.9154 L3.8876,23.4384 C3.8876,23.9384 4.2966,24.3474 4.7976,24.3474 L20.0616,24.3474 C20.5616,24.3474 20.9706,23.9384 20.9706,23.4384 L20.9706,13.8234 C20.9706,13.5614 21.1086,13.3204 21.3336,13.1844 C23.7546,11.7164 24.9826,8.4774 23.2116,5.2614 Z" id="Stroke-2"></path>
                <path d="M9.2394,9.8239 L9.2394,13.4589" id="Stroke-4" stroke-linecap="round"></path>
                <path d="M12.3512,9.8239 L12.3512,13.4589" id="Stroke-6" stroke-linecap="round"></path>
                <path d="M15.463,9.8239 L15.463,13.4589" id="Stroke-8" stroke-linecap="round"></path>
            </g>
        </g>
    </g>
</svg>