<svg width="53" height="52" viewBox="0 0 53 52" fill="none" xmlns="http://www.w3.org/2000/svg">
  <path d="M7.91504 41.4865H44.4202" stroke="#201E21" stroke-width="2"/>
  <path fill-rule="evenodd" clip-rule="evenodd" d="M49.2083 11.2375C48.5501 10.0729 47.6013 9.09167 46.4687 8.35C43.2355 6.2375 40.0408 5.68125 37.1731 6.10417C36.5918 6.18958 36.017 5.96875 35.6537 5.51875C33.4505 2.77083 30.0208 1 26.1679 1C22.2958 1 18.851 2.78333 16.65 5.55417C16.2803 6.02083 15.6841 6.24375 15.09 6.14375C12.2565 5.66667 9.08741 6.15625 5.93544 7.99375C4.7238 8.70208 3.70876 9.69583 2.99716 10.8833C-1.15703 17.8187 1.63593 24.8812 7.09152 27.9083C7.59583 28.1896 7.91423 28.7021 7.91423 29.2667V49.1062C7.91423 50.1479 8.78824 51 9.85884 51H42.4769C43.5454 51 44.4194 50.1479 44.4194 49.1062V29.075C44.4194 28.5292 44.7143 28.0271 45.1951 27.7437C50.3686 24.6854 52.9928 17.9375 49.2083 11.2375Z" stroke="#201E21" stroke-width="2"/>
  <path d="M19.3516 20.7437V28.3166" stroke="#201E21" stroke-width="2" stroke-linecap="round"/>
  <path d="M26 20.7437V28.3166" stroke="#201E21" stroke-width="2" stroke-linecap="round"/>
  <path d="M32.6504 20.7437V28.3166" stroke="#201E21" stroke-width="2" stroke-linecap="round"/>
</svg>
