<svg width="20" height="20" viewBox="0 0 20 20" fill="none" xmlns="http://www.w3.org/2000/svg">
<path fill-rule="evenodd" clip-rule="evenodd" d="M10 0C4.5 0 0 4.5 0 10C0 15.5 4.5 20 10 20C15.5 20 20 15.5 20 10C20 4.5 15.5 0 10 0ZM10 2.67859C11.7002 2.67859 13 3.97858 13 5.67859C13 7.3786 11.7002 8.67859 10 8.67859C8.2998 8.67859 7 7.3786 7 5.67859C7 3.97858 8.2998 2.67859 10 2.67859ZM4 12.8322C5.2998 14.7322 7.5 16.0321 10 16.0321C12.5 16.0321 14.7002 14.7321 16 12.8322C16 10.8322 12 9.73215 10 9.73215C8 9.73215 4 10.8322 4 12.8322Z" fill="white"/>
</svg>
