<?xml version="1.0" encoding="utf-8"?>
<!-- Generator: Adobe Illustrator 21.0.0, SVG Export Plug-In . SVG Version: 6.00 Build 0)  -->
<svg version="1.1" id="Слой_1" xmlns="http://www.w3.org/2000/svg" xmlns:xlink="http://www.w3.org/1999/xlink" x="0px" y="0px"
	 viewBox="0 0 2000 2000" style="enable-background:new 0 0 2000 2000;" xml:space="preserve">
<g>
	<path d="M1398.6,1095.7c-2.1,2-3.5,3.2-4.8,4.5c-15.8,15.4-32.7,29.4-51.9,40.5c-6.1,3.5-12.5,6.3-19.5,7.7
		c-13.6,2.7-26-0.4-37.5-7.6c-10.5-6.6-18.5-15.6-25.1-25.9c-10.9-17.1-16.9-35.9-19.8-55.8c-1.1-7.3-1.7-14.7-2.7-23.5
		c-1.3,2.5-2.1,4-2.9,5.6c-15.8,30.5-34.6,58.8-59.5,82.8c-9.3,9-19.2,17.2-30.3,23.9c-8,4.8-16.5,8.4-25.8,10.1
		c-13.2,2.3-25.1-0.7-35.2-9.1c-15.5-12.9-25.8-29.1-29.1-49.3c-2.9-17.7-3-35.5-2.6-53.3c0.6-30.4,3.4-60.6,6.8-90.7
		c1.4-12.2,2.8-24.5,4.2-36.7c0.1-0.7-0.1-1.4-0.1-2c-9.7,4.8-19.1,9.5-29.2,14.4c0.4,2.6,1,5.7,1.5,8.8c2.6,16.4,0.6,32.6-3.7,48.4
		c-15,55.3-44.1,102-87.7,139.3c-16.2,13.8-34.4,24.1-55.4,28.9c-29.5,6.7-55.9,0.5-79.8-17.9c-26.3-20.2-41.6-47.1-48.8-79.1
		c-5.9-26.1-7.7-52.5-7.2-79.1c0.4-24.2,3.6-48,10.7-71.2c13.8-45,40.3-80.8,79.3-107c28-18.8,59.3-26.4,92.9-24.6
		c11.4,0.6,22.6,2.7,33.1,7.6c3.8,1.8,7.5,3.8,10.9,6.1c15.9,10.9,22.1,26.8,17.9,45.5c-0.9,4-2.4,7.9-3.7,11.8
		c-6.7-1.9-12.8-4.1-19.1-5.2c-22.8-4.1-44.5,0-65.3,9.7c-17.5,8.2-31.6,20.7-43.6,35.8c-16.3,20.6-27.5,44-36.4,68.5
		c-8.1,22.3-14.2,45.2-16.7,68.9c-2.1,19.6-1.9,39,4.2,58c1.9,5.9,4.3,11.8,7.3,17.2c15.9,28.1,47.8,37.4,76.4,22.3
		c14.7-7.7,25.7-19.3,34.2-33.4c8.6-14.2,14.2-29.7,19.1-45.5c6.4-20.8,10-42,9.6-63.8c-0.4-19.5-3.6-38.5-11.2-56.5
		c-2.7-6.4-6.2-12.6-10.1-18.4c-5.3-7.9-12.5-13.7-21.4-17.2c-1-0.4-2-1-3.7-1.8c21-9.9,41.4-19.5,62.2-29.3
		c23.2,26.7,53.1,34.5,87.8,30.7c0.8-4.6,1.6-9.2,2.3-13.8c3.2-19.8,6.6-39.6,12.6-58.9c2.1-6.7,5.1-13,7.9-19.4
		c1.1-2.4,2.9-4.3,5.8-5c16.3-3.8,32.6-7.2,49.5-6.2c8.8,0.5,14.8,2.6,20.5,7.3c-14.4,23.6-18.8,50.5-24.2,76.9
		c-7.9,38.6-13.4,77.7-18.6,116.7c-3.4,25.6-6.3,51.2-5.7,77c0.2,9.4,1.6,18.8,2.5,28.3c0.1,0.9,0.4,1.9,0.6,2.8
		c1.6,5.2,4.2,6.6,8.9,3.7c4.3-2.7,8.5-5.9,11.8-9.7c6.7-7.7,13.1-15.8,18.9-24.2c14.2-20.5,25.9-42.4,36.9-64.7
		c28.2-57.4,50.8-117.1,70.9-177.8c4.2-12.8,8.3-25.6,12.4-38.4c0.5-1.4,1-2.9,1.5-4.5c1.4-0.1,2.6-0.3,3.9-0.3
		c17,1.1,34.1,2.1,51,3.6c5.4,0.5,10.8,1.9,16,3.6c6.2,2,7,4.2,4.5,10.2c-24.3,59.5-41.3,121.2-52.7,184.4
		c-4.1,22.6-7,45.4-6.7,68.4c0.1,11,0.8,22,4.1,32.6c1.1,3.4,2.3,6.8,4,10c6.2,11.9,16.4,16.4,29.5,13.5c7-1.6,13.3-4.7,18.8-9.2
		c10.8-8.9,21.3-18.2,31.9-27.4c3.3-2.9,6.1-6.2,9.3-9.2c2.1-2,2.8-4.2,2.9-7c0.4-21.2,0.8-42.5,1.5-63.7c1-33.4,3.4-66.6,6.7-99.8
		c4-40.4,10-80.5,18.5-120.2c18.4-86.3,49-167.9,95-243.5c9.2-15.1,18.3-30.2,28.2-44.7c11.4-16.6,25-31.5,41.1-43.8
		c10.5-8,21.8-14.4,34.8-17.5c23.4-5.5,43.1,3.3,54.4,24.5c15.5,29.1,27.1,59.7,32.6,92.3c3.9,23.3,4.6,46.7,2.3,70.3
		c-3.7,37.1-14,72.5-28.4,106.7c-16.7,39.5-36,77.7-58.3,114.4c-24.1,39.5-52.9,75.4-83.9,109.6c-23.2,25.6-46.7,50.8-70.2,76.1
		c-2.6,2.8-4,5.7-4.4,9.5c-2.3,19.4-5.1,38.7-7.3,58.1c-2.5,22.3-4.2,44.6-1.7,67c3,26.9,11.3,52.2,25.4,75.3
		c13,21.2,31.7,34.9,56.6,39.3c16.7,3,33.2,1.3,49.6-2.5c22.5-5.2,43.6-14.1,64-24.7c37-19.2,71.1-42.9,103.6-68.8
		c17.1-13.6,33.5-27.9,50.3-41.8c2.9-2.4,6-4.8,9.4-6.3c6.6-2.9,11.7,0.8,12,8c0.1,3.9-1.1,7.5-3.3,10.7
		c-6.1,8.9-11.8,18.1-18.5,26.6c-46.8,59.1-100.5,111-162.9,153.4c-16.5,11.2-33.8,20.9-52.5,28.2c-47.1,18.3-93.3,7.6-127.6-29.5
		c-17.3-18.7-29-40.6-38-64.2c-10-26.1-16.1-53.3-20.4-80.9c-3.6-23.4-6-47-7-70.7C1399.1,1098.5,1398.9,1097.7,1398.6,1095.7z
		 M1478.6,955.9c0.4,0.1,0.8,0.2,1.2,0.4c0.7-0.8,1.5-1.6,2.2-2.5c28.4-36.4,55-73.9,76.6-114.8c16.7-31.5,33.9-62.7,48.2-95.4
		c16.3-37.3,29.7-75.5,34.3-116.2c2.5-21.8,2.1-43.6-3.3-65c-2.3-9.3-5.9-18.4-9.3-27.4c-2.3-5.8-5.9-6.8-11.3-3.6
		c-2.4,1.4-4.6,3.3-6.7,5.2c-7,6.8-12.4,14.8-17.4,23.1c-11,18-19.8,37.1-27.8,56.6c-21.7,52.9-37.5,107.7-51.2,163.1
		c-13,52.4-23.4,105.4-32.7,158.6C1480.4,944,1479.6,949.9,1478.6,955.9z"/>
	<path d="M461.7,698.3c2.5,9.2,5.9,17,9.9,24.5c11.4,21.6,25.7,41.3,42.2,59.1c19.7,21.3,40.1,41.9,60.5,62.5
		c31,31.5,62.9,62.1,91,96.3c22.8,27.6,42.8,57,57.6,89.7c10.1,22.4,17.3,45.7,19.5,70.3c3.7,41.8-5.3,80.6-28.6,115.8
		c-19.8,29.9-45.8,53.5-75.6,73c-35.8,23.4-75.1,37.5-117.1,44.5c-29.7,4.9-59.6,5.9-89.6,4.2c-27.7-1.6-54.9-6.6-81.2-16
		c-38.9-13.9-71.7-36.7-98.3-68.3c-19.6-23.3-36.6-48.4-52.1-74.5c-9.4-15.8-18.2-31.9-27.1-48c-5.5-10-1.5-21.8,8.8-26.8
		c5.7-2.8,10.1-1.9,14.2,3c5.3,6.4,10.4,13.1,15.8,19.4c14.6,17,28.9,34.2,44,50.7c15.1,16.6,32.4,31,51.2,43.2
		c15.8,10.3,33.2,17.4,51,23.5c24.8,8.4,50.3,12.9,76.5,11.9c40.6-1.5,78.3-12.5,110.2-38.5c34.2-27.8,57.1-63,65.6-106.7
		c3.9-20.3,3.9-40.7,1.3-61.1c-6.3-49.2-27.7-91.8-58.4-130c-9.7-12.1-20.3-23.5-31-34.8c-29.8-31.4-58.1-64-82.3-100
		c-18.2-27-33.9-55.2-44.4-86.2c-1.6-4.7-3.1-9.4-4.3-14.1c-0.8-3.1-2.4-4.6-5.5-5.5c-21.1-6.4-41.6-14.1-61.5-23.5
		c-33-15.5-63.7-34.5-89.9-60c-8.2-8-15.8-16.9-22.6-26.2c-17.9-24.6-23.7-52-17.8-81.9c2.4-12.1,5.3-24,10.4-35.3
		c13.6-30,36.9-46.8,69.3-51.4c22.7-3.2,45-0.7,67.2,3.9c37.4,7.8,72.5,21.8,105.7,40.6c4.4,2.5,4.4,2.5,5.3,7
		c-3.3,2.2-7.1,2.1-10.7,1.5c-10.6-1.8-21.3-3.7-31.9-5.7c-20.5-3.8-40.9-8.1-61.5-11.3c-16.7-2.6-33.6-2.8-50.4,0.5
		c-28.4,5.5-45.1,23.4-48,52.2c-2.2,22.1-0.1,43.9,6,65.3c7.3,25.4,22.7,44.7,45.5,58s47,23.8,71.5,33.3c3.6,1.4,7.3,2.7,11.3,4.2
		c-0.6-6.3-1.4-11.8-1.6-17.4c-0.6-10.9,1.2-21.5,4.2-32c15.9-55.4,52-90.3,107.4-105.5c25-6.9,50.7-9.2,76.6-8.6
		c28.8,0.7,57,5.1,84,15.3c21.2,8,40.5,19.1,56.2,35.6c19,20,29.5,44,30.8,71.5c0.7,14.5-3,28.3-10.5,40.7
		c-13.8,22.9-33.3,39.1-58.1,48.8c-18,7-36.7,10.5-55.8,12.6c-30,3.2-59.8,1.1-89.6-3.1c-19.9-2.8-39.7-6.2-59.5-9.3
		C465.8,698.7,464.2,698.6,461.7,698.3z M450.5,666.6c1.9,0.5,3.2,0.9,4.4,1.2c32.8,7.3,65.9,12.5,99.5,13.6
		c25.1,0.8,50-1.1,74.4-7.6c16.2-4.4,31.5-10.6,44.9-21.2c25-19.7,29.2-58.8,4.1-82c-26.8-24.8-58.6-38.3-94.9-39.7
		c-30-1.2-58.3,6-84.8,19.9c-16.4,8.6-29.9,20.7-39,37.1c-8.2,14.8-11.5,30.8-11.6,47.5C447.4,645.8,448.1,656.1,450.5,666.6z"/>
	<path d="M1061.1,1400.4c69.4,0,138.8,0,208.2,0c37.3,0,69.4,24.2,79.1,60.1c1.8,6.7,2.6,13.8,2.9,20.7c0.4,12.7,0.2,25.4,0.1,38.1
		c-0.2,44.3-36.6,80.9-80.8,80.9c-139.8,0.1-279.5,0.1-419.3,0c-42.2,0-78.1-33.7-80.3-75.9c-0.8-15.7-0.9-31.5,0-47.2
		c2.3-43.2,37.9-76.7,81.3-76.7c57.3-0.1,114.5,0,171.8,0C1036.5,1400.4,1048.8,1400.4,1061.1,1400.4z M1076,1476.3
		c0.4,0.1,0.8,0.2,1.3,0.2c0.4,18.7,0.8,37.5,1.2,56.2c0.2,8.7,0.1,17.4,0.3,26.1c0.1,5,2.4,7.2,7.2,7.7c6.2,0.7,9.7-2.2,9.5-8.7
		c-0.9-37.5-1.9-75-2.8-112.5c-0.1-3.8-0.3-7.6-0.6-11.4c-0.4-4.3-2.2-6-6.5-6.3c-4.9-0.3-8.3,1.8-10.2,6.4
		c-6.2,15.5-12.4,30.9-18.6,46.4c-0.7,1.8-1.4,3.7-2.5,6.7c-3.2-9-5.8-16.7-8.8-24.2c-3.9-9.9-8.2-19.6-12.3-29.3
		c-1.1-2.7-2.7-5-5.9-5.7c-5.8-1.3-10.6,0.6-10.9,7.7c-0.9,29.7-2.2,59.4-3.2,89.2c-0.4,11.2-0.5,22.3-0.6,33.5
		c0,5.1,2.1,7.4,6.8,8.1c6.1,0.9,9.8-2.2,9.9-8.5c0-1.1,0-2.3,0-3.4c0.6-24.8,1.3-49.6,2-74.4c0-1.3,0.4-2.6,0.8-5
		c1.3,3.1,2.1,5,2.8,7c3.5,10.2,7,20.4,10.5,30.6c1.1,3.3,2.3,6.5,6.2,7.5c5.5,1.4,8.9-0.6,10.8-6.3c3.7-10.9,7.5-21.8,11.3-32.7
		C1074.4,1479.6,1075.3,1477.9,1076,1476.3z M969,1513.8c0.5,2.3,1,3.9,1.3,5.6c2.6,13.6,5.2,27.2,7.9,40.7c1.1,5.4,5.3,8,11,7
		c4.8-0.8,6.5-3.8,5.3-9.9c-5.5-27.5-10.9-55-16.9-82.3c-3-13.7-6.8-27.2-10.5-40.7c-1.6-5.7-5.3-7.4-10.8-6.1
		c-3.9,1-5.4,3.8-6.4,7.3c-6.7,23.1-13.9,46-20.1,69.3c-4.7,17.5-8.2,35.4-12,53.2c-1.2,5.6,0.6,8.1,5.7,9.1
		c5.9,1.2,9.4-0.8,10.7-6.2c1.2-5,2.2-10,3.3-15c2.3-10.1,4.7-20.3,7.1-30.6C952.6,1514.6,960.5,1514.2,969,1513.8z M1261.5,1484.3
		c-2-3.7-3.7-6.5-5-9.4c-2.9-6.4-5.9-12.7-8.3-19.3c-2.5-6.9-4.2-14.1-6.3-21.2c-0.7-2.4-1.2-4.9-3.9-5.9c-3.8-1.5-7.5-0.8-10.8,1.5
		c-3,2.2-2.5,5.2-1.9,8.3c0.1,0.7,0.4,1.4,0.6,2.2c5.1,20.8,13.6,40.1,24.5,58.5c1.8,3.1,2.6,6.1,2.6,9.7c-0.1,15.7-0.1,31.5,0,47.2
		c0,1.5,0,3,0.1,4.5c0.2,3,1.8,4.8,4.6,5.8c7.1,2.3,12.1-1.1,12.1-8.5c0.1-15.9,0.1-31.8,0-47.7c0-3.9,0.7-7.4,2.8-10.8
		c2.9-4.7,5.3-9.6,7.8-14.5c7.6-14.7,13-30.2,17-46.3c0.5-2.1,0.7-4.8-0.3-6.5c-2.1-3.7-6.2-4-10-4s-4.9,2.8-5.8,5.9
		c-1.6,5.7-3.2,11.3-5,16.9C1272.7,1462,1268.1,1473,1261.5,1484.3z M877.5,1444.3c2.1,0,4.2,0,6.2,0c7.4-0.1,14.8-0.1,22.2-0.4
		c5.9-0.2,7.7-2.3,7.6-8.2c0-0.8,0-1.5-0.1-2.3c-0.6-4.5-2.6-6.2-7.2-6.3c-3.8,0-7.6,0.1-11.4,0.2c-8.5,0.1-17.1,0.2-25.6,0.4
		c-6.8,0.2-9.5,3.2-9.5,10c0,1.5,0.1,3,0.1,4.5c0.4,20.3,1,40.5,1,60.8c0,18.4-0.7,36.7-1,55.1c-0.1,6.2,3,9,9.1,8.6
		c5.2-0.4,7.5-2.5,7.6-8c0.4-12.5,0.5-25,0.7-37.5c0.1-6.6,0.3-13.1,0.5-19.9c2-0.2,3.5-0.3,5-0.4c5.3-0.2,10.6-0.3,15.9-0.4
		c2.6-0.1,5-0.5,6.4-2.9c1.9-3.3,2-6.9,0.4-10.4c-1.5-3.3-4.5-3.6-7.7-3.6c-3.2,0.1-6.4,0.2-9.7,0.2s-6.7,0-10.6,0
		C877.5,1470.5,877.5,1457.9,877.5,1444.3z M1185.5,1549.3c0-2.9,0-5.5,0-8.1c0.1-24.4,0.4-48.8,0.4-73.3c0-10.8-0.4-21.6-1-32.4
		c-0.3-6.2-3.1-8.3-9.3-7.7c-5.7,0.5-7.5,2.5-7.4,8.4c0,1.7,0.1,3.4,0.1,5.1c0.3,29,0.6,57.9,0.7,86.9c0,9.7-0.3,19.3-0.8,29
		c-0.3,5.8,3.4,8.5,7.9,9.3c1.5,0.3,3,0.2,4.5,0.2c3.8-0.1,7.6-0.3,11.4-0.4c8.7-0.2,17.4-0.3,26.1-0.4c2.6,0,5-0.4,6.3-2.9
		c1.8-3.6,1.9-7.4,0.1-10.9c-1.5-3-4.6-3-7.5-3c-8.9,0.2-17.8,0.3-26.7,0.5C1188.9,1549.5,1187.4,1549.4,1185.5,1549.3z
		 M1121.6,1496.5C1121.7,1496.5,1121.7,1496.5,1121.6,1496.5c0.1,9.3,0.1,18.6,0.1,27.8c0,11.4,0,22.7,0.1,34.1
		c0.1,5.3,2.4,7.8,7.4,8.2c5.9,0.6,9.2-2.4,9.4-8.5c0-0.8,0-1.5,0-2.3c0-39.4,0-78.8,0-118.2c0-1.3,0-2.7,0-4
		c-0.2-3-1.8-4.8-4.6-5.7c-7.4-2.4-12.3,1-12.3,8.8C1121.6,1456.7,1121.6,1476.6,1121.6,1496.5z M827.4,1544.5
		c-5.8,0-10.8,4.9-10.9,10.8c-0.2,6.3,4.7,11.4,10.9,11.3c6.1-0.1,11.1-5.2,11-11.4C838.3,1549.4,833.3,1544.5,827.4,1544.5z"/>
	<path d="M1333.6,1294.4c0-6-0.1-12.1,0-18.1c0.3-19.1,0.6-38.3,1-57.4c0.2-7.9,7.5-11.7,14.5-7.8c2.6,1.5,3.5,3.8,3.4,6.7
		c-0.3,7.8-0.8,15.5-0.7,23.3c0.1,31.3,0.5,62.5,0.7,93.8c0,4.7,0.2,9.5,0.1,14.2c-0.1,4.5-1.8,6-6.3,6.4c-7.1,0.7-9.4-0.7-12.1-7.5
		c-10.3-26.7-20.7-53.3-33-79.2c-1.1-2.3-2.3-4.7-4.4-6.9c-0.1,1.4-0.3,2.7-0.3,4.1c-0.3,26.3-0.6,52.7-0.9,79c0,0.2,0,0.4,0,0.6
		c-0.1,3.2,0.5,6.8-3.2,8.4c-3.8,1.7-7.8,1.7-11.6,0.1c-2.9-1.3-3.3-3.9-3.2-6.7c0.3-8.3,0.8-16.7,0.7-25
		c-0.1-32.6-0.4-65.2-0.6-97.8c0-2.3-0.2-4.6,0-6.8c0.2-4.3,2.2-6.6,6.3-7.6c3.9-1,7.5,0.1,9.4,3.4c2.8,4.7,5.3,9.6,7.7,14.6
		c10.2,21.4,20.2,42.8,30.4,64.2c0.4,0.8,0.8,1.6,1.2,2.4C1333,1294.7,1333.3,1294.5,1333.6,1294.4z"/>
	<path d="M1147.7,1288.2c-12.1,0.5-23.2,1-34.8,1.4c-0.2,1.9-0.4,3.5-0.4,5.1c-0.4,17.2-0.9,34.5-1.2,51.7c-0.1,3.4-0.3,6.6-4,8
		c-3.9,1.5-7.8,1.5-11.4-0.8c-2.5-1.7-2.8-4.3-2.7-7.1c0.3-9.1,0.9-18.2,0.8-27.3c-0.1-32.6-0.5-65.2-0.7-97.8
		c0-0.8-0.1-1.5-0.1-2.3c-0.1-7.7,7.2-12.1,14.1-8.4c3.2,1.7,3.7,4.6,3.8,7.7c0.4,13.6,0.9,27.3,1.3,40.9c0.1,3.8,0,7.5,0,12.1
		c11.9-0.4,23.1-0.8,35.1-1.3c0.1-2.4,0.2-4.4,0.2-6.4c0-15,0.1-29.9,0.1-44.9c0-8,6.8-12,14.1-8.3c3.2,1.6,3.8,4.5,3.8,7.6
		c-0.1,10-0.3,20.1-0.3,30.1c0,19.5,0.1,39,0.2,58.5c0.1,13.5,0.3,26.9,0.2,40.4c0,5.5-2.6,7.9-8.1,8c-6.3,0.1-9.6-2.6-9.7-8.5
		c-0.2-15-0.2-29.9-0.3-44.9C1147.7,1297.7,1147.7,1293.4,1147.7,1288.2z"/>
	<path d="M789.5,1267c2-1.4,3.1-2.1,4-2.9c13.8-11.8,22.9-26.6,28.8-43.6c0.4-1.3,0.9-2.5,1.2-3.8c0.9-3.4,2.6-6,6.3-6.5
		c4-0.5,7.5,0.7,10.2,3.8c2,2.2,1.8,4.8,0.9,7.5c-5.1,16.3-12.7,31.2-23.8,44.3c-1,1.1-2,2.3-3.1,3.6c0.6,1.1,1,2.1,1.6,3
		c13.9,22.5,23.2,46.8,28.7,72.6c1.3,6.2,0,8.8-5,10.1c-6.7,1.7-10.8-0.2-12.3-6.3c-3.6-14.6-7.9-28.9-13.9-42.6
		c-3.6-8.1-7.4-16.1-12.6-23.9c-3.3,2.5-6.2,4.9-9.2,7.1c-2.1,1.5-1.7,3.7-1.7,5.7c-0.2,11.2-0.2,22.4-0.4,33.6
		c-0.1,5.9-0.4,11.7-0.7,17.6c-0.4,7.4-2.6,9.5-9.7,9.2c-6.3-0.3-8.2-2.7-8-10.3c0.4-17.4,1.1-34.9,1.1-52.3
		c-0.1-24.5-0.7-48.9-1.1-73.3c-0.1-6.9,3.2-10.2,10-9.6c4.8,0.4,7.3,2.6,7.5,7.5c0.5,11.4,0.8,22.7,1.1,34.1
		C789.6,1256.3,789.5,1261.2,789.5,1267z"/>
	<path d="M1214.2,1227.6c0,13.9,0,27.1,0,41c4,0,7.5,0.1,11.1,0s7.2-0.4,10.8-0.4c5.6,0.1,8.3,3.1,8.3,9.2c0,5.9-2.4,8.5-8,8.7
		c-7.2,0.2-14.3,0.4-22.1,0.5c0,16.9,0,33.3,0,50.5c1.9,0,4.1,0,6.3,0c8.7-0.1,17.4-0.2,26.2-0.3c7.8,0,11.7,5.6,8.9,13
		c-1,2.7-3,4.4-6,4.5c-15,0.4-29.9,0.8-44.9,0.9c-5.8,0-9.6-4.1-9.4-11c0.6-25.4,1.1-50.8,1.2-76.2c0.1-15.5-0.3-31.1-1.2-46.6
		c-0.4-8,4.1-12,11.4-11.9c12.1,0.3,24.3-0.2,36.4-0.5c3.2-0.1,6.3,0,7.8,3.3c1.8,4,2.2,8.1-0.3,12c-1.4,2.2-3.7,2.4-6,2.5
		c-8.5,0.2-17,0.5-25.6,0.7C1217.5,1227.6,1216,1227.6,1214.2,1227.6z"/>
	<path d="M1016.2,1284c0.9,10,1.7,21.3,3.1,32.6c0.5,4.2,1.9,8.6,3.7,12.4c5.9,12.6,22.4,14.1,30.9,3.2c4.5-5.8,8.8-6.3,14.3-1.5
		c3.6,3.1,4.2,5.9,1.6,10c-5,7.9-11.9,13.3-21.1,15.2c-12.9,2.6-24.9,1.2-34.8-8.6c-4.6-4.7-7.5-10.4-9.6-16.6
		c-3.2-9.4-4.4-19.2-5-29c-1-17.4-1.4-34.8,1.7-52.1c1.4-7.7,3.5-15.1,7.2-22c7.9-14.6,20.3-20.9,36.8-18.9
		c8.8,1.1,15.5,5.8,20.8,12.6c2.4,3,2.2,5.8-0.2,8.8c-0.9,1.2-2.1,2.2-3.3,3.1c-4.1,3-7.6,2.7-10.9-1.3c-2.7-3.2-5.7-5.4-10-5.9
		c-7.2-0.8-12.5,2.1-16.3,8.1c-4.2,6.7-6.2,14.3-7,22C1017.2,1264.8,1016.9,1273.7,1016.2,1284z"/>
	<path d="M939.7,1228.7c-3.5,0-6.5,0-9.5,0c-4.2,0-8.3,0.1-12.5,0c-8.1-0.1-12.5-7.3-8.6-14.6c0.8-1.4,2.7-2.6,4.3-3.1
		c1.5-0.5,3.4-0.2,5.1-0.2c20.3-0.4,40.6-0.8,60.8-1.3c3.1-0.1,6.3-0.4,7.8,3.1c1.8,4,2.4,8.2-0.1,12c-0.9,1.4-3.4,2.4-5.3,2.6
		c-5.8,0.6-11.7,0.6-17.6,0.9c-2,0.1-4.1,0.2-6.6,0.4c0,2.7,0,4.9,0,7.2c0.1,35.3,0.1,70.5,0.2,105.8c0,1.5-0.1,3,0,4.5
		c0.8,7.3-4.6,9.7-9.8,9.3c-5.4-0.4-7.9-3-8-9c-0.2-10.8-0.3-21.6-0.3-32.4c0-26.2,0-52.3,0-78.5
		C939.7,1233.4,939.7,1231.4,939.7,1228.7z"/>
	<path d="M870,1282.2c0-21,0-42.1,0-63.1c0-7.4,2.7-9.8,10.1-9.4c5.4,0.4,7.5,2.4,7.7,7.7c0.1,1.3,0,2.7,0,4c0,40.6,0,81.2,0,121.7
		c0,0.9,0,1.9,0,2.8c-0.1,7.2-3.8,10.4-10.8,9.3c-4.4-0.7-6.6-3-6.7-7.7c-0.1-7.6-0.1-15.2-0.1-22.8
		C870.1,1310.6,870.1,1296.4,870,1282.2L870,1282.2z"/>
	<path d="M958.7,1467c2.3,9.8,4.6,19.6,7.1,30.1c-5.9,0-11.1,0-16.7,0c2.3-10.2,5.3-20.2,8.5-30.2C958,1466.9,958.3,1467,958.7,1467
		z"/>
</g>
</svg>
