<svg width="325" height="91" viewBox="0 0 325 91" fill="none" xmlns="http://www.w3.org/2000/svg">
<path d="M311.8 84.5V73.1V72.9V72.8V72.6V72.5V72.4V72.3V72V71.9V71.8V71.7V71.6V71.5V71.4V71.3V71.2V71.1V71V70.9V71H311.7V70.9V70.8V70.7V70.6V70.5V70.4V70.3V70.2V70.1V70V69.9V69.8V69.7H307.2V64.9H307.3V64.7H306.7L306.8 64.6L306.9 64.4L307 64L307.1 63.8V63.6V63.4V63.2V63L307 62.8L306.9 62.6L306.8 62.4L306.7 62.2L306.6 62.1L306.5 62L306.4 61.9L306.3 61.8L306.2 61.7L306.1 61.6L306 61.5L305.9 61.4L305.8 61.3L305.7 61.2L305.6 61.1L305.5 60.9V60.5H305.6V60.4V60.3V60.2V60.1V60V59.9L305.5 59.8H305.4V59.7V59H305.5L305.6 58.9V58.8V58.7V58.6H305.7L305.8 58.5L305.7 58.4V58.3V58H305.8L305.9 58.1L305.8 57.9V58H306V58.1V58.2L306.1 58.3L306.2 58.2V58.1V58H306.3H306L305.9 57.9H305.8V57.8L305.7 57.7L305.6 57.8V57.9V58H305.4V57.9L305.5 57.8L305.4 57.9H305.3V57.7H305.4L305.6 57.5L305.4 57.4H305.3V57.3L305.2 57.2L305.1 57.3V57.4H305L304.8 57.5L305 57.7H305.1V57.9H305L304.9 57.8L305 57.9V58H304.8V57.9V57.8L304.7 57.7L304.6 57.8V57.9H304.5L304.4 58L304.5 58.1H304.6V58.2V58.3L304.7 58.4L304.8 58.3V58.2H304.9V58H305.1V58.1L305 58.3L305.1 58.2H305.2V58.5H305V58.6H304.9L304.8 58.7L304.9 58.8H305V58.9V59L305.1 59.1V59H305.2V59.4V59.6H305.1L305 59.7V59.8V59.9V60V60.1V60.2V60.3H305.1V60.7L305 60.9L304.9 61L304.8 61.1L304.7 61.2L304.6 61.3L304.5 61.2L304.4 61L304.3 60.8L304.2 60.6L304.1 60.4L304 60.2V59.7L304.1 59.6L304.2 59.5V59.4V59.3V59.2V59.1L304.1 59L304 58.9H303.9V58.7V58.3H304V58.2V58.1L304.1 58V57.9L304 57.8V57.7H304.1L304.2 57.6L304.1 57.5H304V57.4H303.9V57.1H304L304.2 57.3L304.1 57.1V57H304.3V57.1H304.4V57.2L304.5 57.3L304.6 57.2V57.1V57H304.7L304.8 56.9L304.7 56.8H304.6L304.5 56.7L304.4 56.5L304.3 56.6V56.7H304.2V56.8H304V56.7L304.1 56.5L303.9 56.6H303.8V56.4H303.9L304.1 56.2L303.9 56H303.8V55.9L303.7 55.8L303.6 55.9V56H303.5L303.3 56.2L303.5 56.4H303.6V56.6H303.5L303.4 56.5L303.5 56.7V56.8H303.3V56.7V56.6L303.2 56.5L303.1 56.7L303 56.8H302.9L302.8 56.9L302.9 57H303V57.1V57.2L303.1 57.3L303.2 57.2V57.1H303.3V57H303.5V57.1L303.4 57.3L303.6 57.1H303.7V57.4H303.6V57.5H303.5L303.4 57.6L303.5 57.7H303.6V57.8L303.5 57.9V58L303.6 58.1V58.2V58.3H303.7V58.7V58.9H303.6L303.5 59L303.4 59.1V59.2V59.3V59.4V59.5L303.5 59.6L303.6 59.7V60.2L303.5 60.4L303.4 60.6L303.3 60.8L303.2 61L303.1 61.2L303 61.4L302.9 61.6L302.8 61.7L302.7 61.8L302.6 61.9L302.4 62L302.2 62.1L302 62.3L301.9 62.5L301.8 62.7L301.7 62.9V63.1V63.3V63.5L301.8 63.7L301.9 63.9L302 64.1L302.1 64.3L302.2 64.5H301.7H301.4V64.8H301.6V68H301.2V67.9V67.6V67.3V67V66.7V67V66.7L301.1 60.8H301.4H301.5V59.4H301.1V59.3V58.1H300.9V58V57.6V57.1V56.6L300.8 56.1L300.7 55.6L300.5 55.1L300.3 54.7L300 54.3L299.7 53.9L299.3 53.5L298.9 53.2L298.5 52.9L298.1 52.5L297.7 52.1L297.3 51.7L296.9 51.3L296.5 50.9L296.1 50.5L295.7 50.1L295.4 49.7L294.3 48.3V47.5H294.4L294.5 47.4L294.6 47.3V47.2V47.1V47L294.5 46.9L294.4 46.8L294.3 46.7H294.2V46.6V46.4V46H294.3V45.9L294.4 45.8V45.7L294.3 45.6V45.5H294.4L294.5 45.4L294.4 45.3H294.3H294.2V45H294.3L294.4 45.1L294.3 44.9V44.8H294.5V44.9V45L294.6 45.1L294.7 45V44.9V44.8H294.8L294.9 44.7L294.8 44.6H294.7V44.5L294.6 44.3L294.5 44.4V44.5H294.4V44.6H294.2V44.5L294.3 44.3L294.1 44.4H294V44.2H294.1L294.3 44L294.1 43.8H294V43.7L293.9 43.6L293.8 43.7V43.8H293.7L293.5 44L293.7 44.2H293.8V44.4H293.6L293.4 44.3L293.5 44.5V44.6H293.3V44.5V44.4L293.2 44.3L293.1 44.5L293 44.6H292.9L292.8 44.7L292.9 44.8H293V44.9V45L293.1 45.1L293.2 45V44.9H293.3V44.8H293.5V44.9L293.4 45.1L293.6 44.9H293.7V45H293.6H293.5L293.4 45.1L293.5 45.2H293.6L293.5 45.3V45.4L293.6 45.5V45.6H293.5V45.7H293.6V46.1V46.3H293.5L293.4 46.4L293.3 46.5V46.6V46.7V46.8V46.9L293.4 47L293.5 47.1L293.6 47.2V48L292.6 49.4L292.3 49.8L292 50.2L291.6 50.6L291.2 51L290.8 51.4L290.4 51.8L290 52.2L289.6 52.5L289.2 52.8L288.8 53.1L288.4 53.5L288.1 53.9L287.8 54.3L287.6 54.7L287.4 55.2L287.3 55.7L287.2 56.2V56.7V57.2L287.3 57.6H287.1V58.9V59H287H286.7V60.4H286.8H287V61.6L286.9 61.5L286.8 61.4L286.7 61.3L286.6 61.2L286.5 61.1L286.4 61L286.3 60.9L286.2 60.8L286.1 60.7L286 60.5V60.1H286.1L286.2 60V59.9V59.8V59.7V59.6L286.1 59.5H286H285.9V59.4V59H286V58.9L286.1 58.8V58.7V58.6H286.2L286.3 58.5L286.2 58.4H286.1V58.3V58H286.2L286.3 58.1L286.2 57.9V58H286.4V58.1V58.2L286.5 58.3L286.6 58.2V58.1V58H286.7L286.8 57.9L286.7 57.8H286.6V57.7L286.5 57.6L286.4 57.7V57.8V57.9H286.2V57.8L286.3 57.7L286.2 57.8H286V57.6H286.1L286.3 57.4L286.1 57.3V57.2L286 57.1L285.9 57.2V57.3H285.8L285.6 57.4L285.8 57.6H285.9V57.8H285.8L285.7 57.7L285.8 57.8V57.9H285.6V57.8V57.7L285.5 57.6L285.4 57.7V57.8H285.3L285.2 57.9L285.3 58H285.4V58.1V58.2L285.5 58.3L285.6 58.2V58.1H285.7V58H285.9V58.1L285.8 58.3L285.9 58.2H286V58.5H285.9V58.6H285.8L285.7 58.7L285.8 58.8H285.9V58.9V59L286 59.1V59.2V59V59.4V59.6H285.9H285.8V59.7V59.8V59.9V60V60.1L285.9 60.2H286V60.6L285.9 60.8L285.8 60.9L285.7 61.1L285.6 61.2L285.5 61.3L285.4 61.4L285.3 61.5L285.2 61.6L285.1 61.7L285 61.8L284.9 61.9L284.8 62L284.7 62.2L284.6 62.4L284.5 62.6L284 63V63.2V63.4V63.6V63.8L284.1 64L284.2 64.2L284.3 64.4L284.4 64.5H284.2H283.7V64.7H283.9V64.8H283.3H283.2L283.3 64.6L283.4 64.4L283.5 64.2L283.6 64V63.8V63.6V63.4L283.5 63.2L283.4 63L283.3 62.8L283.2 62.6L283 62.4L282.8 62.3L282.6 62.2L282.4 62.1L282.3 62L282.2 61.9L282 61.7L281.9 61.5L281.8 61.3L281.7 61.1L281.6 60.9L281.5 60.7L281.4 60.5V60L281.5 59.9L281.6 59.8V59.7V59.6V59.5V59.4L281.5 59.3L281.4 59.2H281.3V59V58.6H281.4V58.5V58.4L281.5 58.3V58.2L281.4 58.1H281.5L281.6 58L281.5 57.9H281.4V57.8V57.5H281.5L281.7 57.7L281.6 57.5V57.4H281.8V57.5V57.6L281.9 57.7L282 57.6V57.5V57.4H282.1L282.2 57.3L282.1 57.2H282V57.1L281.9 56.9L281.8 57V57.1H281.7V57.2H281.5V57.1L281.6 56.9L281.5 57H281.4V56.8H281.5L281.7 56.6L281.5 56.4V56.3L281.4 56.2L281.3 56.3V56.4H281.2L281 56.6L281.2 56.8H281.3V57H281.2L281.1 56.9L281.2 57.1V57.2H281V57.1V57L280.9 56.9L280.8 57.1L280.7 57.2H280.6L280.5 57.3L280.6 57.4H280.7V57.5V57.6L280.8 57.7L280.9 57.6V57.5H281V57.4H281.2V57.5L281.1 57.7L281.3 57.5H281.4V57.8H281V57.9H280.9L280.8 58L280.9 58.1H281V58.2V58.3L281.1 58.4V58.5H281V58.6V59V59.2H280.9L280.8 59.3L280.7 59.4V59.5V59.6V59.7V59.8L280.8 59.9L281 60V60.5L280.9 60.7L280.8 60.9L280.7 61.1L280.6 61.3L280.5 61.5L280.4 61.7L280.3 61.9L280.2 62L280.1 62.1L279.9 62.2L279.7 62.3L279.5 62.4L279.3 62.6L279.2 62.8L279.1 63L279 63.2V63.4V63.6V63.8L279.1 64L279.2 64.2L279.3 64.4L279.4 64.6L279.5 64.8H279.3H278.6V65.1H278.8L278.9 69.4H276.9V69.5V69.6V69.7V69.8V69.9V70V70.1V70.2V70.3V70.4V70.5V70.6L276.8 70.7L276.7 70.8L276.6 71L276.5 71.2V71.3H275.6V71.4V71.5V71.6V71.7V71.8V71.9V72V72.1V72.2V72.3V72.4V72.5V72.6V72.7V72.8V72.9V73V73.2V73.4V73.6V73.8V74.1H275.5L275.6 76.4H269L262.2 75V67.6H260.7V67.5L260.3 67.4H259.8L252.1 64.9V61.3H251.6V61.2H251.4H251.2L250.6 61.3V60.1L250.7 60H250.9H251.1H251.2L251.3 60.1L251.2 60.2V60.5V60.8V61L251.3 60.9L251.4 60.8L251.5 60.7V60.6V60.4V60.2V60V59.9L251.4 59.8L251.3 59.7L251.2 59.6L251.1 59.5L250.9 59.4H250.7H250.5V61.6L249.7 61.5H249.6H249.5V61.6H249.2V65.2L241.4 67.7H241.3L240.5 67.8L240.4 67.9V68H239.4L239.3 75.4L232.8 76.8H228L228.1 75.2H226L226.1 72.5V72H220.3L212.6 72.6V73L212.5 75.3L210.9 75.4L210.8 78.7H209.4H208.7H194.6V76.2H193.7V74.7V74.4H190.6L188 74.6V74.9V76.3H187.2V78.3H186.8H181.6L181.7 71.4H180.3L180.4 65.1L180.1 65L179.6 65.1H179.4V63.4H177.5L176.9 63.8V65.2H176.8V65.4L176.4 65.6L175.9 65.7L175.8 71.6L175.4 71.7H173.5L172.7 71.9V68.6H172.4H172.1H172V67.4H170.6L170.3 67.6V68.6H170.1V68.7L170 68.8H169.7V72.4H163.7H163.3V70.9H161.8L161.6 71V71.2H161.3L161.1 71.3V72.4H160.1V63.3H158.9V62.6H156.6V62.7V54.1L154.9 54.2V53.3L154.8 53.1L154.6 52.9L154.3 52.8V49.7V49.5L154.2 49.3L154 49.2L153.8 49.1V48.5V48.4L153.1 47.6L153.3 45.8V45.7V45.6H153.2H153.1L152.9 39.3H153H153.2L154 39.2L154.6 38.7L154.9 38.1L155 37.5L154.9 36.9L154.8 36.3L154.4 35.7L154 35.6L154.5 36.7L154.6 37.5L154.5 38.2L154 38.7L153 38.8L152 38.7L151.9 38.6L153 37.9L154 38.7L153.6 37.5L154.5 36.9H153.4L153 35.7L152.6 36.9H151.6L152.4 37.5L152 38.6L151.6 38.2L151.5 37.5L151.6 36.7L152.1 35.6L151.7 35.7L151.3 36.3L151.2 36.9L151.1 37.5L151.2 38.1L151.5 38.7L152.1 39.2L152.9 39.3H153.1H153.2L152.9 45.6H152.8H152.7V45.7V45.8L152.9 47.6L152.2 48.4V48.5V49.1L152 49.2L151.8 49.3L151.7 49.5V49.7V52.8L151.4 52.9L151.2 53.1L151.1 53.3V54.2L149.3 54.3V62.7H147.3V63.4H146.1V72.3H145.1V71.2L145 71.1H144.7V70.9L144.5 70.8H143.2V72.3H142.8H137V68.9H136.7L136.6 68.8V68.7H136.4V67.7L136.1 67.5H134.8V68.7H134.7H134.4L134.2 68.8V71.9L133.6 71.7H131.9L131.6 71.6V66L131.2 65.9L130.9 65.7V65.5H130.8V64.2L130.2 63.9H128.5V65.5H128.3L127.8 65.4L127.5 65.5V71.3H126.3L126.4 77.7H121.9H121.6V75.9H121V74.6V74.4L118.9 74.2H116.4V74.4V75.7H115.7V78H104.8H104.3H103.2V75.1H102V73.1V72.7H95H90.9V73.1V75.3H89.4L89.6 84.4H87.8V84.1H87.7V83.3L87.6 83.1V81.5L87.8 81.4V81.3L87.6 81.2V80V79.7L87.8 79.5V79.2L87.6 79.1V78.8L87.8 78.4V78.1L87.5 78H87.4L87.3 75.5H87.8V75L86.1 73.8L83.3 65H83.5L83.4 62.6H83.3H83.1H82.8L82.9 65H83L80.6 73.6L79.1 74.6L78.8 74.5L77.1 73.9L77 70.9H77.3V70.5L76.3 69.9L76.6 69.5L76.3 68.6L76.9 67.6L77.4 67.4L76.4 66.9L76 66.6H75L74.9 58.6L75.5 57.8L74.6 57.6V56.5V56.4L74.5 55.5L74.4 55.2H73.7L73.6 55.1L73.5 49.6H74L74.3 49.3V48.6L73.9 48.5L74 48.3L74.4 48L74.5 47.9L74.8 47.4L75 46.4L74.8 45L73.6 43.2L72 41.8L71.8 41.6L71.5 41.2L70.8 40.4L70.2 39.2L69.9 37.8L69.8 36.8H69.9L70 36.7L70.1 36.5V36.3V36.2V36L70 35.9L69.9 35.8L69.7 35.7V34.4H69.9V34.2H69.7V32.2H70.9V31.9H69.7V31.7H69.9V31.5H69.7V31.3H69.4V31.4H69.2V31.6H69.4V31.8H68.2V32H69.4V34H69.2V34.2H69.4V35.4L69.2 35.5L69.1 35.6L69 36.1V36.3V36.4V36.6L69.1 36.8L69.2 36.9H69.3L69.2 37.9L68.9 39.3L68.4 40.4L67.6 41.4L67.4 41.6L67.2 41.8L65.7 43.3L64.6 45.1L64.5 45.3L64.3 46.7L64.5 47.7L64.8 48.1L65.3 48.4L65.4 48.6H65.2L65 48.9V49.6L65.6 49.7L66 50L66.1 54L65.8 55.1H65.3V55.3H65.2V55.7V56.7V57V57.4H65V55.4L65.3 55.3V54.8L65.1 54.7H65L64.8 54.6L65.2 54.4L65.5 54L65.7 53.2L65.8 52.3L65.6 51.6L65 50.9L64.9 50.8L64.2 50.1L63.7 49.7L63.6 49.6L63.2 49.3L62.6 48.7V48.6V48.5L62.5 48.3L62.4 48.2L62.3 48.1L62 48L61.9 47.9L61.8 47H61.9L62 46.9L62.1 46.7V46.5V46.3L62 46.1L61.9 46L61.7 45.9V44.5H62V44.3H61.7V43H62V42.8H61.7V42.2H63V41.9H61.7V41.7H61.9V41.4H61.7V41.2H61.4V41.4H61.2V41.7H61.4V41.9H60.1V42.1H60.6V42.2H60.4V42.4H60.6V42.6H59.9H59.5L59.2 40.5L58.8 40.3L58.4 37.7L58 37.5L57.6 35.1L57.3 34.9L57.2 32.2L57.4 31.7L57.7 31.1L58.3 30.8L57.7 30.3L58.3 29.8L57 29.7V26.5L56.4 26.3L56.3 26.1H56.4L56 24.8V24.6L55.9 24.5L55 21.5L53.9 17.5L54.2 17.7V17.5L53.9 17.3L53.8 16.9H53.7L53.6 16.5L53.4 16.6L53.6 16.1V15V14.4H53.4L53.3 14.3L53.6 11.6L53.7 11.5L53.9 11.3L53.8 11.1L54 10.9L54.2 10.7L54.4 10.4L54.5 10.1V9.7V9.3L54.3 8.8L54.1 8.5L53.9 8.2L53.7 8L53.4 7.8L53 7.7L52.7 7.5L52.4 7.2L52.2 6.9L52.1 6.4L52 5.2L52.1 5.1L52.2 5L52.3 4.8V4.6V4.4V4.3L52.2 4.2H52L51.9 4.1V3.1H52.1V3V2.8H51.9V1H53V0.7V0.6H51.9V0.5H52.1V0.2V0.1H51.9V0H51.7V0.2H51.5V0.4V0.5H51.7V0.7H50.6V0.9V1H51.7V2.9H51.5V3V3.2H51.7V4.3H51.6L51.5 4.4L51.4 4.5L51.3 4.6V4.8V5V5.1L51.4 5.2L51.5 5.3H51.6L51.5 6.4L51.4 6.9L51.2 7.2L50.9 7.5L50.6 7.7L50.2 7.9L49.9 8.1L49.7 8.3L49.5 8.6L49.3 8.9L49.1 9.4V9.8V10.2L49.2 10.5L49.4 10.8L49.6 11L49.8 11.2L49.7 11.3L49.9 11.5L50.1 11.6L50.4 14.3L50.2 14.5H50.1V14.7V15.9L50.2 16.3L50.5 16.9L50 16.8L49.8 17.6L49.6 17.8V18L49.7 17.9L47 26.3L47.4 26.4L46.6 26.6L46.5 29.7L45.2 30L45.8 30.4L45.9 30.6L45.6 31L46.2 31.3L46.5 31.9L46.2 35L45.9 35.2L45.5 37.6L45.2 37.8L44.8 40.4L44.4 40.6L44 43.5L43.5 44L43.4 44.1V44.3V44.2V44.1L43.3 44.2L43.4 44.4V44.5H42.4V44.7H43.4L43.5 46.6H43.3V46.8H43.5V47.5V48L43.4 47.9L42.7 47L42.3 46.3L42 45.5L41.8 44.3L41.9 44.2L42 44.1L42.1 43.9V43.7V43.5L42 43.3L41.9 43.2L41.7 43V41.6H42V41.4H41.8V39.3H43.1V39H41.8V38.8H42V38.5H41.8V38.3H41.5V38.5H41.3V38.7H41.5V39H40.2V39.3H41.5V41.4H41.2V41.6H41.4V42.9L41.2 43L41 43.2V43.4V43.6V43.8V44L41.1 44.1L41.2 44.2L41 45.5L40.8 46.4L40.3 47.3L39.6 48.1L39.5 48.2L39.1 48.5H39L38.2 49.2L37.5 49.9V50L37 50.7V49.5L37.2 49.3L37.8 49.2V48.5L37.6 48.3L38.2 47.8L38.6 47.2L38.8 46.5L38.9 45.8V45.2L38.7 44.5L38.4 43.9L38.1 43.6L37.7 43.1L37 42.5L36 42.2L35.6 41.9L35.3 41.6L35 41.4L34.7 41L34.4 40.5L34.3 40.4L34.1 40.3L33.8 39.2L33.6 37.9H33.7L33.8 37.8L33.9 37.6V37.4V37.2V37L33.8 36.9L33.7 36.8V35.5H34V35.3H33.8V33.4H35V33.2H33.8V33H34V32.8H33.8V32.7H33.5V32.9H33.3V33.1H33.5V33H32.3V33.3H33.5V35.3H33.2V35.5H33.4V36.7L33.2 36.8L32.9 37L32.8 37.2V37.4V37.6L32.9 37.8L33 37.9L32.8 39.2L32.5 40.3L32.2 40.4L32 40.9L31.7 41.3L31.2 41.8L30.7 42.2L29.8 42.7L29.1 43.3L28.6 43.8L28.3 44.4L28 45.1L27.9 45.7V46.4L28.1 47.1L28.5 47.7L29.1 48.2H29.2L28.9 48.3V49L29.4 49.3H29.7L29.6 55.4L29.4 55.5H28.9L28.7 55.8L28.6 56.7V57.9L27.7 58.1L28.3 58.8L28 66.6H27L26.6 67L25.6 67.5L26.1 67.7L26.7 68.7L26.4 69.6L26.7 70L25.7 70.6V71H26V73.8L24 74.4L22.2 73.4L19.4 65H19.5V62.6H19.2H19H18.9V65H19L15.8 73.5L13.5 75V75.5H14.2L14.1 77.9L13.7 78V78.3L14 78.7V79L13.7 79.1V79.4L14 79.6V81V81.1L13.8 81.2V81.3L14 81.4V83L13.9 83.2V83.7L13.5 83.4L13.4 83H13.3V84.5H13.4L13.6 84.4H13.8V84.5L13.7 84.6V84.7H13.4L0 90.1L325 90L311.8 84.5ZM82 78.1L82.1 77.8L82.2 77.6L82.3 77.4L82.5 77.3H82.6L82.7 77.5L82.8 77.7L82.7 77.8L82.8 78.2L83 78.4L83.2 78.2L83.3 77.8L83.2 77.7H83.3L83.4 77.5L83.5 77.4L83.6 77.5L83.7 77.7L83.8 77.9L83.9 78.1L83.8 78.2L83.9 78.7L84.1 78.9L84.3 78.7L84.4 78.2L84.3 78.1H84.4L84.5 77.9L84.6 77.7L84.7 77.5L84.9 77.4L85 77.5L85.1 77.7V78L85.3 78.4V78.7H85.1V79L85.3 79.2V80V80.7H85V80.8L85.1 80.9V82.5L85 82.7V83.5V83.9H84.9H81.9V83.3L81.8 83.1V81.5L81.9 81.4V81.3L81.7 81.2V80V79.7L81.9 79.5V79.2L81.7 79.1V78.8L81.9 78.4L82 78.1ZM61.4 44.2H61.1V44.4H61.3V45.7L61.1 45.8L61 45.9V46.3V46.4H60.9V45.2H61.1V45H60.9V43.1H61.5L61.4 44.2ZM61.4 42.1V42.7H60.8V42.5H61V42.3H60.8V42.2L61.4 42.1ZM60 42.9H60.6H60ZM60 42.9H60.6V44.8H60.4V45H60.6V46.2L60.4 46.3L60.3 46.4L60.2 46.6V46.8V47L60.3 47.2L60.4 47.3L60.5 47.4L60.4 48.5L60.2 49.3L60 49.4V45.4L60.3 45L60.4 44.2L60 43.8L59.6 43.4L59.5 42.9H60ZM17.2 80.8V80.6L17.4 80.5V80.4H17.2V79L17.5 78.8V78.5H17.2V78.2L17.5 77.8V77.6L17.6 77.8L17.7 78H17.8L17.7 78.1L17.8 78.5L18 78.7H18.1L18.3 78.5L18.4 78.1L18.2 78H18.3L18.4 77.8L18.5 77.6L18.7 77.4L18.9 77.3L19.1 77.2H19.3L19.4 77.4L19.5 77.6H19.6L19.5 77.7L19.6 78.1L19.8 78.3H19.9L20.1 78.1L20.2 77.7L20.1 77.6H20.2V77.5L20.3 77.6L20.4 77.8L20.5 78H20.4V78.3L20.7 78.7V79L20.4 79.1V79.4L20.7 79.6V80.7V81L20.5 81.1V81.2L20.7 81.3V82.9L20.6 83.1V83.7H17.8V83.6H17.7V83.2H17.6V82.4L17.5 82.2L17.2 80.8Z" fill="#00BABA"/>
</svg>
