<svg id="Layer_1" data-name="Layer 1" xmlns="http://www.w3.org/2000/svg" viewBox="0 0 500 500"><defs><style>.cls-1{fill:#e8edef;opacity:0.46;}.cls-2{fill:#ced5d8;opacity:0.49;}.cls-3{fill:#fff;stroke:#b1bcc4;stroke-miterlimit:10;stroke-width:2px;}.cls-4{fill:#b1bcc4;}.cls-5{fill:none;}</style></defs><title>sk</title><path class="cls-1" d="M372.52,265.07c-5,34.87-26.2,45.53-54.69,53.31-4,1.08-8.12,2.12-12.38,3.15l-2.38.57-7.62,1.84c-21.21,5.13-44.74,11.34-68,25.07-0.56.32-1.12,0.66-1.68,1a160.11,160.11,0,0,0-15.09,10.38c-58,44.92-111-92.25-68.93-152.36,7.85-11.22,16.07-16.62,24.66-19.09a53.61,53.61,0,0,1,13.76-1.9c8.07-.2,16.43.73,25.1,0.69,1.66,0,3.33,0,5-.15a72,72,0,0,0,8.28-.92,57.71,57.71,0,0,0,13.37-4h0c1.65-.71,3.3-1.52,5-2.44,8.3-4.58,16.84-11.84,25.62-23.24q2.59-3.37,5.23-7.25C309.68,88,382.51,196,372.52,265.07Z"/><path class="cls-2" d="M196.69,210.4H297.24A31.85,31.85,0,0,1,329,242.16v37A31.85,31.85,0,0,1,297.24,311h-50.6c-0.09.1-.16,0.22-0.26,0.32l-15,15a8,8,0,0,1-11.23,0l-15-15c-0.1-.1-0.17-0.22-0.26-0.32h-8.26a31.85,31.85,0,0,1-31.75-31.75v-37A31.85,31.85,0,0,1,196.69,210.4Z"/><path class="cls-3" d="M207.54,197.24H308.08A31.85,31.85,0,0,1,339.84,229v37a31.85,31.85,0,0,1-31.75,31.75h-50.6c-0.09.1-.16,0.22-0.26,0.32l-15,15a8,8,0,0,1-11.23,0l-15-15c-0.1-.1-0.17-0.22-0.26-0.32h-8.26A31.85,31.85,0,0,1,175.78,266V229A31.85,31.85,0,0,1,207.54,197.24Z"/><circle class="cls-4" cx="298.26" cy="249.69" r="10.84"/><circle class="cls-4" cx="260.81" cy="249.69" r="10.84"/><circle class="cls-4" cx="223.36" cy="249.69" r="10.84"/><rect class="cls-5" width="500" height="500"/></svg>