<svg id="Layer_1" data-name="Layer 1" xmlns="http://www.w3.org/2000/svg" viewBox="0 0 500 500"><defs><style>.cls-1,.cls-6,.cls-9{fill:none;}.cls-2,.cls-5{fill:#e8edef;}.cls-2{opacity:0.46;}.cls-3{fill:#ced5d8;opacity:0.49;}.cls-4,.cls-8{fill:#fff;}.cls-6,.cls-8,.cls-9{stroke:#b1bcc4;stroke-miterlimit:10;}.cls-6,.cls-9{stroke-width:2px;}.cls-7{fill:#b1bcc4;}.cls-8{stroke-width:4px;}.cls-9{stroke-linecap:round;}</style></defs><title>sk</title><rect class="cls-1" width="500" height="500"/><path class="cls-2" d="M372.59,265.4c-5,34.87-26.2,45.53-54.69,53.31-4,1.08-8.12,2.12-12.38,3.15l-2.38.57-7.62,1.84c-21.21,5.13-44.74,11.34-68,25.07-0.56.32-1.12,0.66-1.68,1a160.11,160.11,0,0,0-15.09,10.38c-58,44.92-111-92.25-68.93-152.36,7.85-11.22,16.07-16.62,24.66-19.09a53.61,53.61,0,0,1,13.76-1.9c8.07-.2,16.43.73,25.1,0.69,1.66,0,3.33,0,5-.15a72,72,0,0,0,8.28-.92A57.71,57.71,0,0,0,232,183h0c1.65-.71,3.3-1.52,5-2.44,8.3-4.58,16.84-11.84,25.62-23.24q2.59-3.37,5.23-7.25C309.75,88.35,382.58,196.35,372.59,265.4Z"/><path class="cls-3" d="M317.9,318.71c-4,1.08-8.12,2.12-12.38,3.15l-2.38.57H258.93a17.06,17.06,0,0,1-32.53,0H152.48c0-13,19-10.65,19-25.41V244.4a63.78,63.78,0,0,1,33.93-56.34c1.66,0,3.33,0,5-.15a72,72,0,0,0,8.28-.92A57.71,57.71,0,0,0,232,183h0c1.65-.71,3.3-1.52,5-2.44,1.88,0,3.79.16,5.71,0.37,32.5,3.55,56.82,31.61,56.82,64.32V297C299.55,310.18,314.64,309.73,317.9,318.71Z"/><rect class="cls-4" x="234.91" y="166.34" width="19.61" height="32" rx="9" ry="9"/><rect class="cls-5" x="235.52" y="178.34" width="19" height="31" rx="6" ry="6"/><rect class="cls-6" x="234.91" y="166.34" width="19.61" height="32" rx="9" ry="9"/><path class="cls-4" d="M232.08,311.1a12.74,12.74,0,1,0,25.47,0"/><path class="cls-4" d="M302.52,288.53V242.07c0-29.36-21.83-54.56-51-57.75a57.45,57.45,0,0,0-64,57v47.24c0,13.26-17,11.13-17,22.81H319.56C319.56,299.67,302.52,301.79,302.52,288.53Z"/><path class="cls-4" d="M302.52,288.53V242.07c0-29.36-21.83-54.56-51-57.75a57.45,57.45,0,0,0-64,57v47.24c0,13.26-17,11.13-17,22.81H319.56C319.56,299.67,302.52,301.79,302.52,288.53Z"/><rect class="cls-5" x="232.02" y="311.84" width="25" height="4.5"/><path class="cls-6" d="M232.08,312.1a12.74,12.74,0,1,0,25.47,0"/><path class="cls-6" d="M302.52,288.53V242.07c0-29.36-21.83-54.56-51-57.75a57.45,57.45,0,0,0-64,57v47.24c0,13.26-17,11.13-17,22.81H319.56C319.56,299.67,302.52,301.79,302.52,288.53Z"/><circle class="cls-7" cx="212.52" cy="244.34" r="7"/><circle class="cls-7" cx="274.52" cy="244.34" r="7"/><path class="cls-7" d="M238.52,257.84a6.5,6.5,0,0,1,13,0"/><path class="cls-3" d="M331.52,204.34h-38a12,12,0,0,0-12,12v14a12,12,0,0,0,12,12h19.12l0.1,0.12,5.66,5.66a3,3,0,0,0,4.24,0l5.66-5.66,0.1-.12h3.12a12,12,0,0,0,12-12v-14A12,12,0,0,0,331.52,204.34Z"/><path class="cls-8" d="M337.21,197.38h-38a12,12,0,0,0-12,12v14a12,12,0,0,0,12,12h19.12l0.1,0.12,5.66,5.66a3,3,0,0,0,4.24,0L334,235.5l0.1-.12h3.12a12,12,0,0,0,12-12v-14A12,12,0,0,0,337.21,197.38Z"/><circle class="cls-7" cx="304.05" cy="216.71" r="4.1"/><circle class="cls-7" cx="318.21" cy="216.71" r="4.1"/><circle class="cls-7" cx="332.36" cy="216.71" r="4.1"/><line class="cls-9" x1="187.49" y1="289.37" x2="203.52" y2="289.37"/><line class="cls-9" x1="217.52" y1="289.37" x2="302.52" y2="289.37"/></svg>