<svg id="Layer_1" data-name="Layer 1" xmlns="http://www.w3.org/2000/svg" viewBox="0 0 500 500"><defs><style>.cls-1,.cls-7,.cls-8{fill:none;}.cls-2,.cls-5,.cls-9{fill:#e8edef;}.cls-2{opacity:0.46;}.cls-3{fill:#ced5d8;opacity:0.49;}.cls-4,.cls-6{fill:#fff;}.cls-4,.cls-7,.cls-8,.cls-9{stroke:#b1bcc4;stroke-miterlimit:10;}.cls-4{stroke-width:2px;}.cls-6{opacity:0.6;}.cls-7,.cls-8,.cls-9{stroke-width:6px;}.cls-8{stroke-linecap:round;}</style></defs><title>sk</title><rect class="cls-1" width="500" height="500"/><path class="cls-2" d="M366.6,264.9c-5.75,39.75-32.44,48-67.07,56.46l-10,2.41c-21.21,5.13-44.74,11.34-68,25.07-0.56.32-1.12,0.66-1.68,1a160.11,160.11,0,0,0-15.09,10.38c-58,44.92-111-92.25-68.93-152.36,7.85-11.22,16.07-16.62,24.66-19.09a53.61,53.61,0,0,1,13.76-1.9c12.11-.3,24.91,2,38.39-0.38,13.92-2.4,28.58-9.67,44-29.65q2.59-3.37,5.23-7.25C303.76,87.85,376.59,195.85,366.6,264.9Z"/><path class="cls-3" d="M299.53,159.84V321.36l-10,2.41c-21.21,5.13-44.74,11.34-68,25.07h-47a4,4,0,0,1-4-4V187.77c1.24-.36,2.5-0.66,3.76-0.9,12.07-2.35,24.87.12,38.39-.38,16.85-.62,34.84-5.83,54-30.65h28.88A4,4,0,0,1,299.53,159.84Z"/><rect class="cls-4" x="179.53" y="153.84" width="129" height="178" rx="4" ry="4"/><rect class="cls-5" x="233.53" y="166.84" width="60" height="12" rx="3" ry="3"/><rect class="cls-5" x="233.53" y="183.84" width="35" height="12" rx="3" ry="3"/><rect class="cls-5" x="192.53" y="206.84" width="85" height="12" rx="3" ry="3"/><rect class="cls-5" x="192.53" y="227.84" width="102" height="12" rx="3" ry="3"/><rect class="cls-5" x="192.53" y="249.84" width="60" height="12" rx="3" ry="3"/><rect class="cls-5" x="260.53" y="249.84" width="34" height="12" rx="3" ry="3"/><rect class="cls-5" x="192.53" y="269.84" width="85" height="12" rx="3" ry="3"/><rect class="cls-5" x="193.53" y="165.84" width="32" height="32" rx="4" ry="4"/><circle class="cls-6" cx="293.25" cy="266.13" r="53.28"/><circle class="cls-7" cx="293.25" cy="266.13" r="53.28"/><line class="cls-8" x1="330.03" y1="305.34" x2="374.03" y2="349.34"/><rect class="cls-9" x="354.09" y="316.42" width="15" height="40.9" rx="2" ry="2" transform="translate(-132.3 354.35) rotate(-45)"/></svg>