<svg id="Layer_1" data-name="Layer 1" xmlns="http://www.w3.org/2000/svg" viewBox="0 0 500 500"><defs><style>.cls-1{fill:none;}.cls-2{fill:#e8edef;opacity:0.46;}.cls-3{fill:#ced5d8;opacity:0.49;}.cls-4{fill:#fff;stroke:#b1bcc4;stroke-miterlimit:10;stroke-width:2px;}.cls-5{fill:#b1bcc4;}</style></defs><title>sk</title><rect class="cls-1" x="0.07" width="500" height="500"/><path class="cls-2" d="M372.52,265.4c-5,34.87-26.2,45.53-54.69,53.31-4,1.08-8.12,2.12-12.38,3.15l-2.38.57-7.62,1.84c-21.21,5.13-44.74,11.34-68,25.07-0.56.32-1.12,0.66-1.68,1a160.11,160.11,0,0,0-15.09,10.38c-58,44.92-111-92.25-68.93-152.36,7.85-11.22,16.07-16.62,24.66-19.09a53.61,53.61,0,0,1,13.76-1.9c8.07-.2,16.43.73,25.1,0.69,1.66,0,3.33,0,5-.15a72,72,0,0,0,8.28-.92A57.71,57.71,0,0,0,232,183h0c1.65-.71,3.3-1.52,5-2.44,8.3-4.58,16.84-11.84,25.62-23.24q2.59-3.37,5.23-7.25C309.68,88.35,382.51,196.35,372.52,265.4Z"/><path class="cls-3" d="M171,239.39h76.49a24.22,24.22,0,0,1,24.15,24.15v28.18a24.22,24.22,0,0,1-24.15,24.15H209c-0.07.08-.12,0.17-0.2,0.24l-11.39,11.39a6.06,6.06,0,0,1-8.54,0l-11.39-11.39c-0.08-.08-0.13-0.17-0.2-0.24H171a24.22,24.22,0,0,1-24.15-24.15V263.55A24.22,24.22,0,0,1,171,239.39Z"/><path class="cls-4" d="M179.29,229.38h76.49a24.22,24.22,0,0,1,24.15,24.15v28.18a24.22,24.22,0,0,1-24.15,24.15H217.29c-0.07.08-.12,0.17-0.2,0.24L205.7,317.5a6.06,6.06,0,0,1-8.54,0l-11.39-11.39c-0.08-.08-0.13-0.17-0.2-0.24h-6.29a24.22,24.22,0,0,1-24.15-24.15V253.53A24.22,24.22,0,0,1,179.29,229.38Z"/><path class="cls-3" d="M332.88,209.19h-68.2a21.6,21.6,0,0,0-21.54,21.54v25.13a21.6,21.6,0,0,0,21.54,21.54H299c0.06,0.07.11,0.15,0.18,0.22l10.15,10.15a5.4,5.4,0,0,0,7.61,0l10.15-10.15c0.07-.07.11-0.15,0.18-0.22h5.61a21.6,21.6,0,0,0,21.54-21.54V230.73A21.6,21.6,0,0,0,332.88,209.19Z"/><circle class="cls-5" cx="246.02" cy="269.28" r="8.25"/><circle class="cls-5" cx="217.54" cy="269.28" r="8.25"/><circle class="cls-5" cx="189.05" cy="269.28" r="8.25"/><path class="cls-4" d="M341.1,195h-72a22.81,22.81,0,0,0-22.74,22.74v26.53A22.81,22.81,0,0,0,269.09,267h36.24c0.07,0.07.12,0.16,0.19,0.23L316.24,278a5.7,5.7,0,0,0,8,0L335,267.24c0.07-.07.12-0.16,0.19-0.23h5.92a22.81,22.81,0,0,0,22.74-22.74V217.74A22.81,22.81,0,0,0,341.1,195Z"/><circle class="cls-5" cx="280.42" cy="232.7" r="7.76"/><circle class="cls-5" cx="307.24" cy="232.7" r="7.76"/><circle class="cls-5" cx="334.06" cy="232.7" r="7.76"/></svg>