<svg width="14" height="14" viewBox="0 0 14 14" fill="none" xmlns="http://www.w3.org/2000/svg">
  <path d="M6.9 0C4.17 0 2 2.17 2 4.9C2 8.61 6.9 14 6.9 14C6.9 14 11.8 8.54 11.8 4.9C11.8 2.17 9.63 0 6.9 0ZM3.4 4.9C3.4 2.94 4.94 1.4 6.9 1.4C8.86 1.4 10.4 2.94 10.4 4.9C10.4 6.93 8.37 9.94 6.9 11.83C5.43 9.94 3.4 6.93 3.4 4.9Z" fill="#121213"/>
  <path d="M6.90039 6.64966C7.86689 6.64966 8.65039 5.86616 8.65039 4.89966C8.65039 3.93316 7.86689 3.14966 6.90039 3.14966C5.93389 3.14966 5.15039 3.93316 5.15039 4.89966C5.15039 5.86616 5.93389 6.64966 6.90039 6.64966Z" fill="#121213"/>
</svg>
