<svg width="325" height="85" viewBox="0 0 325 85" fill="none" xmlns="http://www.w3.org/2000/svg">
<path d="M149.4 74.8004L151.4 73.0004L156.5 73.2004C156.5 73.2004 165.9 57.0004 173.2 47.4004L184.9 49.3004C184.9 49.3004 173.9 66.1004 170.6 76.5004L174.8 73.2004L181.6 74.9004L183.3 73.7004C183.3 73.7004 186.1 74.7004 186.6 74.7004C187.1 74.7004 189.1 71.4004 189.1 71.4004L189.3 71.3004L190.9 72.9004C190.9 72.9004 192.3 72.6004 192.3 72.9004C192.3 73.2004 192.3 71.6004 192.3 71.6004H196.3V72.5004C196.3 72.5004 197.1 72.4004 197.2 72.5004C197.3 72.6004 197.9 73.2004 197.9 73.2004H200.6V72.6004H202.2V72.2004H210.4V70.8004H210.8V72.7004H216.1C216.1 72.7004 207.4 54.3004 201.5 47.4004L212 48.5004L230.9 74.0004V63.2004H231.3V74.0004H238.6V64.2004H238.8V74.1004H246.2V84.2004H148.2L149.4 74.8004Z" fill="#00BABA"/>
<path d="M243.9 73.2998L244.7 71.8998H246.7L246.5 70.2998H246.8V69.1998H246.4L247 68.5998V67.5998H246L247.1 66.4998V65.2998L247.4 66.5998L248.1 67.2998L248.5 67.6998H247.7V68.4998L248.2 69.0998H247.5V70.0998H248.2L247.8 71.6998H250.4V72.5998H257.9L258.2 72.8998H259.6V73.5998H262.7L264.2 74.1998L265 73.1998L268.8 73.3998L269.4 72.7998H270.8L271.4 73.2998V72.0998H271.7V63.6998L270.5 61.7998L272 60.2998L273.7 61.9998L272.2 63.4998V72.0998H272.7V72.7998H274.7L275.9 73.9998H281.1V71.6998H284.6V84.1998H243.4L243.9 73.2998Z" fill="#00BABA"/>
<path d="M276.2 61.5996H268V61.6996H276.2V61.5996Z" fill="#00BABA"/>
<path d="M275.501 59.5996H275.301V62.1996H275.501V59.5996Z" fill="#00BABA"/>
<path d="M269 59.8994H268.9V62.2994H269V59.8994Z" fill="#00BABA"/>
<path d="M272.301 57H272.101V61.7H272.301V57Z" fill="#00BABA"/>
<path d="M273.8 60H273.7V61.8H273.8V60Z" fill="#00BABA"/>
<path d="M271.2 55.1996L271.5 56.9996H272.7L273.2 55.1996L272.3 53.5996L271.2 55.1996Z" fill="#00BABA"/>
<path d="M268 58.0994L268.3 59.8994H269.5L270 58.0994L269 56.3994L268 58.0994Z" fill="#00BABA"/>
<path d="M272.801 58.4998L273.101 60.2998H274.301L274.801 58.4998L273.901 56.7998L272.801 58.4998Z" fill="#00BABA"/>
<path d="M274.5 58.0994L274.8 59.8994H276L276.5 58.0994L275.5 56.3994L274.5 58.0994Z" fill="#00BABA"/>
<path d="M283.2 83.9004V75.2004L284.9 73.7004C284.9 73.7004 286.8 72.2004 287.2 70.8004C287.6 69.4004 287.1 68.0004 285.2 67.4004C285.2 67.4004 285 65.6004 283.8 64.5004C283.8 64.5004 283 61.6004 286.7 61.5004C290.4 61.4004 295 60.5004 297.4 61.3004C299.8 62.0004 300.2 62.1004 300.2 62.1004C300.2 62.1004 300.8 60.9004 302.4 60.5004C304 60.1004 304 59.0004 304 59.0004C304 59.0004 300.1 55.3004 301.7 54.5004C301.7 54.5004 298.9 55.1004 296.6 52.7004C294.3 50.3004 292.3 51.9004 292.2 51.9004C292.1 51.9004 291 54.0004 292.3 55.1004L292.6 56.0004C292.6 56.0004 289.6 55.1004 290.3 53.0004C290.3 53.0004 291.4 52.7004 291.4 51.3004C291.4 51.3004 292.5 50.5004 293.9 50.4004L294.3 50.3004L294.4 48.5004L295 47.7004L295.8 45.8004L296.5 44.6004C296.5 44.6004 296.8 43.8004 295.8 44.2004C294.9 44.6004 294.6 44.7004 294.6 44.7004C294.6 44.7004 293.1 44.6004 293.6 43.8004C294.2 43.0004 294.7 42.9004 294.7 42.9004C294.7 42.9004 296.2 41.3004 297 41.2004L296.8 40.4004L297.5 41.0004C297.5 41.0004 300.1 41.1004 300.4 43.3004L300.2 43.8004L300.5 44.3004L300.2 44.4004L300 45.4004L300.2 46.5004L300.5 46.4004L300.6 45.9004L299.5 46.2004V45.6004L300.7 45.2004C300.7 45.2004 301.3 42.4004 302.8 41.9004L303.2 41.3004C303.2 41.3004 302 39.2004 303.7 38.9004C303.7 38.9004 305.6 39.0004 304.1 41.5004L304 41.9004C304 41.9004 305.4 42.3004 305.7 48.5004L307.2 49.9004V50.4004L306 50.3004L306.2 50.9004C306.2 50.9004 307.4 51.6004 307.6 52.3004C307.8 53.1004 310.2 51.3004 310.9 55.2004C311.6 59.1004 312.3 60.7004 313.7 61.7004C313.7 61.7004 312.7 63.0004 311.9 63.5004C311.9 63.5004 309.2 58.8004 309.4 56.9004C309.6 55.0004 308.7 53.5004 308 53.4004C308 53.4004 307.6 56.2004 304.8 56.9004L306.3 58.1004C306.3 58.1004 306.4 58.4004 306.1 58.7004C306.1 58.7004 304.5 60.2004 304.2 60.9004C303.9 61.5004 303.3 62.0004 302.9 62.0004C302.5 62.0004 302.4 62.6004 302.5 62.6004C302.6 62.6004 309.9 64.5004 310.7 65.2004C311.5 65.9004 311.4 65.7004 311.6 64.9004C311.9 64.1004 314.4 62.5004 315 62.4004C315.7 62.3004 317.3 60.7004 317.3 60.7004L319 60.8004H321L321.6 60.2004H322.2V59.3004H323.2L324.1 58.4004H324.8V84.3004L283.2 83.9004Z" fill="#00BABA"/>
<path d="M152.1 84.2V72.7H150.9V69.9H148V71.3H147.5V70.3H146.2V72.7L144.9 74H143.8V70.5H142.4V72H141C141 72 140 72.5 140.3 72.7C140.6 73 138.1 72.7 138.1 72.7V71.1H136.9L135.2 72.8H132.3V73.6H129.9V74.1H128.3L126.5 72.3H124.9V73.6H123V74.5H121.8L120.2 72.9V71.6H119.7C119.7 71.6 119.1 65.7 113.2 65.5V64.1H112.3V64.6H111.9H111.7V61.6H111.9V60.7H112.4V60.2H111.7V58.6C111.7 58.6 111 57 109.9 56.9V55C109.9 55 109.8 53.1 109.4 52.9L109 48V53C109 53 108 53.3 108 54.1C108.1 54.9 108 57.4 108 57.4C108 57.4 106.4 58 106.3 59.8H105.5V60.6H106.3V64.4H104.9V65.8C104.9 65.8 98.7 65.8 98.5 72.2H94.4V71.5H94V72.2H92.3V71H92V71.4H91.3V71.9H89.5V71.2H89V72.1H88.1V70.8C88.1 70.8 87.5 68.9 85.2 69V68.4H84.7V69.2C84.7 69.2 81.3 69.3 81.3 71.5V72.4H80.8V72.7H80.4V73.1H78.9V72.2H78.2V71H76.9V70C76.9 70 76.1 70 76 70V69.5H74.8V71.3H74V72H73.6C73.6 72 73.8 71.4 73.6 71.4C73.4 71.4 73.1 71.4 73.1 71.4V71H72.7V68.3H72.5V67.7H72.2V67.3H72V66.9H68.6V67.3H68.2V67.7H67.9V68.5H67.1V68.7H67.7V70.5H64.6V60.3H65.3V60.2H64.8V59.7H64.4V59H63.7V58.7H63V58.2H62V54L60.5 52.5V47.7L60.2 52.4L58.8 53.8V58.4H58.2V58.9H57.6V59.3H57V59.6H56.3L56 59.9H56.7V62V70.6H51V69.4H49.7V70.5H36.7V51.3H36.2C36.2 51.3 35.4 46.4 33.4 46.3V41.2C33.4 41.2 33.2 38 32.2 37.6V31.3H31.8C31.8 31.3 32 24.9 31.8 24.9C31.6 24.9 31.4 24.9 31.4 24.9L30.9 3.5L31.8 0.6L31.1 1.1L30.9 0L30.2 1.5L30.8 2.1L30.6 3.4L30 37.4C30 37.4 28.3 38.2 28.4 41.2C28.5 44.2 28.4 46.4 28.4 46.4C28.4 46.4 25.4 47.4 25.6 51.8C25.8 56.2 25.6 57.7 25.6 57.7H24.6V66.3H23.6V74.2C23.6 74.2 21.5 73.8 21.5 74.2C21.5 74.6 21.5 75.4 21.5 75.4H19V74.6H17.5V76.3H16.6V75.1H14V76.3H13.2V77.2H13V78H11.3V78.4H10.7V79.2H8V77.9C8 77.9 8.7 78 8.7 77.9C8.7 77.8 9 77.2 8.7 77.2C8.4 77.2 7.5 77.2 7.5 77.2V76.2H4.1L3.3 77H0V84.2H152.1Z" fill="#00BABA"/>
</svg>
