<svg width="313" height="158" viewBox="0 0 313 158" fill="none" xmlns="http://www.w3.org/2000/svg">
<path fill-rule="evenodd" clip-rule="evenodd" d="M109.207 33.0209C112.818 32.0536 116.502 34.0966 117.437 37.5841L136.663 109.336C137.597 112.824 135.428 116.435 131.817 117.403L91.5 128.206L85.5061 140.348C84.9541 141.466 83.5076 141.854 82.4699 141.162L71.2078 133.643L31.2018 144.363C27.5916 145.33 23.9072 143.287 22.9727 139.8L3.74671 68.0471C2.81226 64.5597 4.98157 60.9482 8.5918 59.9808L109.207 33.0209Z" fill="#F9F9F9"/>
<path fill-rule="evenodd" clip-rule="evenodd" d="M102.077 80.5688C106.577 97.3658 96.191 114.743 78.8775 119.382C61.5641 124.021 43.8807 114.165 39.3799 97.3683C34.879 80.5708 45.2653 63.1935 62.5788 58.5544C79.8922 53.9152 97.5756 63.7713 102.077 80.5688Z" fill="#E8E5EE"/>
<path fill-rule="evenodd" clip-rule="evenodd" d="M109.207 33.0209L8.5918 59.9808C4.98157 60.9482 2.81454 64.5682 3.75179 68.0661L23.0355 140.034C23.9728 143.532 27.6595 145.583 31.2697 144.616L71.2757 133.896L82.0091 141.085C83.3283 141.969 85.1661 141.476 85.8668 140.051L91.5679 128.459L131.885 117.656C135.496 116.689 137.663 113.069 136.725 109.571L117.442 37.603C116.504 34.1051 112.818 32.0536 109.207 33.0209Z" stroke="#353742" stroke-width="2" stroke-linecap="round" stroke-linejoin="round"/>
<path fill-rule="evenodd" clip-rule="evenodd" d="M76.5023 112.195C64.0363 115.535 51.3229 108.508 48.1053 96.5004L40.2402 67.1475L85.3818 55.0518L93.2469 84.4048C96.4644 96.4128 88.9676 108.855 76.5023 112.195Z" fill="#F7E4D5"/>
<path fill-rule="evenodd" clip-rule="evenodd" d="M46.2563 79.0658L44.8042 73.6463C44.8042 73.6463 44.0396 72.4395 45.7262 71.9876L86.9607 60.9388L83.0214 53.077L76.036 54.9488L62.9064 60.218L44.4198 66.692L40.3187 69.0938L41.2839 72.5264L43.3448 82.072L45.537 82.2448L46.2563 79.0658Z" fill="#EACFBE"/>
<path fill-rule="evenodd" clip-rule="evenodd" d="M76.5023 112.195V112.195C64.0363 115.535 51.3229 108.508 48.1053 96.5004L40.2402 67.1475L85.3818 55.0518L93.2469 84.4048C96.4644 96.4128 88.9676 108.855 76.5023 112.195Z" stroke="#353742" stroke-width="2" stroke-linecap="round" stroke-linejoin="round"/>
<path fill-rule="evenodd" clip-rule="evenodd" d="M48.2817 97.1556C45.5116 97.8978 42.6823 96.321 41.962 93.633C41.2421 90.9463 42.9038 88.1654 45.6739 87.4231L48.2817 97.1556Z" fill="#EACFBE"/>
<path fill-rule="evenodd" clip-rule="evenodd" d="M59.4841 85.4617C59.8441 86.8054 59.0131 88.1957 57.6282 88.5668C56.2432 88.9379 54.8284 88.1494 54.4684 86.8057C54.1083 85.462 54.9393 84.0717 56.3243 83.7006C57.7092 83.3295 59.124 84.118 59.4841 85.4617Z" fill="#353742"/>
<path fill-rule="evenodd" clip-rule="evenodd" d="M48.2817 97.1556C45.5116 97.8978 42.6823 96.321 41.962 93.633C41.2421 90.9463 42.9038 88.1654 45.6739 87.4231L48.2817 97.1556Z" stroke="#353742" stroke-width="2" stroke-linecap="round" stroke-linejoin="round"/>
<path fill-rule="evenodd" clip-rule="evenodd" d="M82.0544 79.4139C82.4144 80.7575 81.5835 82.1479 80.1985 82.519C78.8135 82.8901 77.3987 82.1015 77.0387 80.7578C76.6786 79.4141 77.5096 78.0238 78.8946 77.6527C80.2795 77.2816 81.6944 78.0702 82.0544 79.4139Z" fill="#353742"/>
<path d="M75.5181 75.0806C76.0203 74.411 76.8445 73.8559 77.8528 73.5857C78.8146 73.328 79.762 73.3789 80.516 73.6701" stroke="#353742" stroke-width="2" stroke-linecap="round" stroke-linejoin="round"/>
<path d="M52.9478 81.1284C53.4506 80.4587 54.2748 79.9036 55.2825 79.6336C56.2448 79.3757 57.1922 79.4266 57.9457 79.7179" stroke="#353742" stroke-width="2" stroke-linecap="round" stroke-linejoin="round"/>
<path fill-rule="evenodd" clip-rule="evenodd" d="M93.4242 85.0601C96.194 84.3179 97.8562 81.5376 97.136 78.8496C96.416 76.1628 93.5862 74.5855 90.8164 75.3276L93.4242 85.0601Z" fill="#EACFBE"/>
<path fill-rule="evenodd" clip-rule="evenodd" d="M93.4242 85.0601C96.194 84.3179 97.8562 81.5376 97.136 78.8496C96.416 76.1628 93.5862 74.5855 90.8164 75.3276L93.4242 85.0601Z" stroke="#353742" stroke-width="2" stroke-linecap="round" stroke-linejoin="round"/>
<path d="M76.7386 93.0089C76.0711 94.2189 74.3491 95.3871 72.1577 95.9743C69.9657 96.5617 67.8909 96.4108 66.707 95.6963" stroke="#353742" stroke-width="2" stroke-linecap="round" stroke-linejoin="round"/>
<path d="M71.0374 88.4514C70.7282 89.0745 70.2248 89.5376 69.5829 89.7097C68.9409 89.8817 68.2726 89.7317 67.6934 89.3467" stroke="#353742" stroke-width="2" stroke-linecap="round" stroke-linejoin="round"/>
<path fill-rule="evenodd" clip-rule="evenodd" d="M72.0402 62.1036L33.5863 72.4073L33.323 71.4247C30.2278 59.8731 37.6099 47.8589 49.8108 44.5897L59.6047 41.9655C63.2324 40.9934 66.9185 42.9893 67.8386 46.4231L72.0402 62.1036Z" stroke="#353742" stroke-width="2" stroke-linecap="round" stroke-linejoin="round"/>
<path fill-rule="evenodd" clip-rule="evenodd" d="M72.0402 62.1036L33.5863 72.4073L33.323 71.4247C30.2278 59.8731 37.6099 47.8589 49.8108 44.5897L59.4968 41.9944C63.1837 41.0065 66.9307 43.0347 67.866 46.5253L72.0402 62.1036Z" fill="#353742"/>
<path fill-rule="evenodd" clip-rule="evenodd" d="M89.5949 57.4001L69.532 62.7759L64.3164 43.311L71.7412 41.3216C78.721 39.4513 85.8515 43.4294 87.6675 50.2067L89.5949 57.4001Z" stroke="#353742" stroke-width="2" stroke-linecap="round" stroke-linejoin="round"/>
<path fill-rule="evenodd" clip-rule="evenodd" d="M89.5949 57.4001L69.532 62.7759L64.3164 43.311L71.7412 41.3216C78.721 39.4513 85.8515 43.4294 87.6675 50.2067L89.5949 57.4001Z" fill="#353742"/>
<path fill-rule="evenodd" clip-rule="evenodd" d="M46.3269 89.8565L47.9988 89.4085L42.7832 69.9436L41.1113 70.3916L46.3269 89.8565Z" stroke="#353742" stroke-width="2" stroke-linecap="round" stroke-linejoin="round"/>
<path fill-rule="evenodd" clip-rule="evenodd" d="M89.7957 78.2086L91.4676 77.7606L86.252 58.2957L84.5801 58.7437L89.7957 78.2086Z" stroke="#353742" stroke-width="2" stroke-linecap="round" stroke-linejoin="round"/>
<path fill-rule="evenodd" clip-rule="evenodd" d="M46.3269 89.8565L47.9988 89.4085L42.7832 69.9436L41.1113 70.3916L46.3269 89.8565Z" fill="#353742"/>
<path fill-rule="evenodd" clip-rule="evenodd" d="M89.7957 78.2086L91.4676 77.7606L86.252 58.2957L84.5801 58.7437L89.7957 78.2086Z" fill="#353742"/>
<path fill-rule="evenodd" clip-rule="evenodd" d="M304.437 58.5885L202.625 31.3081C198.971 30.3292 195.237 32.4178 194.285 35.9729L174.686 109.117C173.733 112.672 175.923 116.348 179.576 117.327L220.058 128.174L226.103 140.534C226.66 141.673 228.124 142.065 229.176 141.357L240.591 133.676L281.388 144.607C285.041 145.586 288.775 143.497 289.728 139.942L309.327 66.7982C310.279 63.2431 308.09 59.5674 304.437 58.5885Z" fill="#F9F9F9"/>
<path fill-rule="evenodd" clip-rule="evenodd" d="M273.636 97.7431C269.048 114.866 251.021 124.913 233.372 120.184C215.723 115.455 205.136 97.7406 209.724 80.6179C214.312 63.4945 232.338 53.4473 249.987 58.1764C267.636 62.9054 278.224 80.6197 273.636 97.7431Z" fill="#E8E5EE"/>
<path fill-rule="evenodd" clip-rule="evenodd" d="M304.437 58.5885L202.625 31.3081C198.971 30.3292 195.242 32.4017 194.295 35.937L174.805 108.674C173.857 112.209 176.051 115.869 179.704 116.848L220.186 127.695L225.958 139.414C226.667 140.854 228.527 141.352 229.861 140.46L240.719 133.197L281.516 144.128C285.17 145.107 288.899 143.035 289.846 139.499L309.336 66.7624C310.284 63.2271 308.09 59.5674 304.437 58.5885Z" stroke="#353742" stroke-width="2" stroke-linecap="round" stroke-linejoin="round"/>
<path fill-rule="evenodd" clip-rule="evenodd" d="M237.343 107.07C224.635 103.665 217.012 90.9137 220.314 78.5887L224.97 61.2138C228.272 48.8888 241.25 41.6575 253.958 45.0625C266.665 48.4674 274.289 61.2189 270.986 73.5439L266.331 90.9188C263.028 103.244 250.05 110.475 237.343 107.07Z" fill="#F7E4D5"/>
<path fill-rule="evenodd" clip-rule="evenodd" d="M241.34 104.296C228.554 100.87 220.838 88.2038 224.107 76.0051L228.715 58.8084C230.161 53.4119 233.516 49.0136 237.913 46.0802C231.759 48.7738 226.904 53.9911 225.081 60.7938L220.473 77.9906C217.205 90.1892 224.92 102.856 237.707 106.282C244.837 108.192 252.036 106.823 257.579 103.125C252.697 105.262 246.997 105.812 241.34 104.296Z" fill="#EACFBE"/>
<path fill-rule="evenodd" clip-rule="evenodd" d="M256.852 45.8382L246.172 45.2734L233.534 48.2164C233.318 48.3697 233.103 48.5231 232.893 48.6837L233.784 50.5828C233.784 50.5828 246.219 69.1562 268.222 56.5858L268.156 55.6955C265.641 51.4235 261.732 47.9031 256.852 45.8382Z" fill="#EACFBE"/>
<path fill-rule="evenodd" clip-rule="evenodd" d="M255.155 41.8388L231.957 35.6231C231.957 35.6231 228.733 40.877 230.439 47.2189C230.439 47.2189 228.135 47.945 225.794 55.2811C223.238 63.2904 222.629 67.6826 222.629 67.6826L228.03 57.7869L232.928 52.3952L243.11 47.8223L261.933 52.12L267.695 63.5189L268.906 70.4018L268.618 79.0116C268.618 79.0116 271.708 72.9393 273.188 64.4302C274.415 57.3784 270.929 54.5729 270.929 54.5729C270.929 54.5729 270.09 45.8221 255.155 41.8388Z" fill="#AA6F5C"/>
<path d="M269.432 79.3374C269.432 79.3374 272.546 73.2496 274.023 64.7113C275.247 57.6349 271.708 54.8093 271.708 54.8093C271.708 54.8093 270.836 46.0221 255.695 41.9839" stroke="#353742" stroke-width="2" stroke-linecap="round" stroke-linejoin="round"/>
<path d="M236.811 51.1017L243.061 48.1801L260.684 52.1815L263.63 56.6799" stroke="#353742" stroke-width="2" stroke-linecap="round" stroke-linejoin="round"/>
<path d="M254.843 41.7552L231.912 35.6109C231.912 35.6109 228.702 40.8883 230.368 47.238C230.368 47.238 228.085 47.9742 225.741 55.3351C223.182 63.3716 222.632 68.5693 222.632 68.5693" stroke="#353742" stroke-width="2" stroke-linecap="round" stroke-linejoin="round"/>
<path fill-rule="evenodd" clip-rule="evenodd" d="M266.716 87.4863C266.426 87.3387 266.073 87.4193 265.886 87.6734C265.846 87.728 261.808 93.117 255.565 92.5676C255.077 92.5243 254.601 92.312 254.228 91.9691C252.897 90.7471 249.121 87.7222 242.802 86.0291C236.484 84.3361 231.701 85.0677 229.939 85.4603C229.444 85.571 228.927 85.5175 228.481 85.3103C222.774 82.6528 221.505 75.8091 221.493 75.7398C221.442 75.45 221.194 75.2265 220.89 75.2039C220.587 75.1804 220.311 75.3602 220.223 75.6402C216.473 87.5211 221.576 94.754 222.094 95.4436C226.195 102.93 232.784 105.849 237.005 106.98C239.368 107.613 240.991 107.686 241.015 107.686C246.929 108.386 254.158 105.283 254.462 105.15C254.505 105.132 254.544 105.109 254.581 105.083L260.535 100.819C260.578 100.789 260.617 100.752 260.651 100.713L262.949 97.9788C262.972 97.9503 262.993 97.9212 263.012 97.8895L264.729 94.904C264.749 94.8707 264.764 94.8356 264.777 94.7996L267.042 88.2579C267.144 87.9616 267.006 87.6327 266.716 87.4863Z" fill="#AA6F5C"/>
<path fill-rule="evenodd" clip-rule="evenodd" d="M267.064 88.181C267.101 87.9006 266.991 87.6261 266.762 87.5C266.493 87.3508 266.154 87.4531 265.966 87.7377C265.948 87.7646 265.157 88.9436 263.776 90.2275C265.045 89.7017 266.155 88.948 267.064 88.181Z" fill="#995E4F"/>
<path fill-rule="evenodd" clip-rule="evenodd" d="M244.98 105.478C244.955 105.478 243.335 105.405 240.973 104.772C236.754 103.642 230.17 100.725 226.071 93.2387C225.653 92.6805 222.237 87.8377 222.934 79.7151C221.838 77.5941 221.499 75.7755 221.493 75.7398C221.442 75.4494 221.194 75.2265 220.889 75.2038C220.587 75.1804 220.312 75.3598 220.223 75.6396C216.474 87.5216 221.572 94.7528 222.089 95.4429C226.188 102.929 232.772 105.846 236.991 106.976C239.353 107.609 240.974 107.682 240.999 107.682C246.909 108.381 254.134 105.276 254.439 105.144C254.48 105.126 254.52 105.103 254.556 105.077L256.52 103.67C253.926 104.584 249.133 105.969 244.98 105.478Z" fill="#995E4F"/>
<path fill-rule="evenodd" clip-rule="evenodd" d="M220.093 79.4089C217.27 78.6524 215.575 75.8179 216.309 73.0783C217.044 70.3386 219.928 68.7311 222.752 69.4877L220.093 79.4089Z" fill="#EACFBE"/>
<path fill-rule="evenodd" clip-rule="evenodd" d="M266.111 91.7391C268.935 92.4956 271.819 90.8882 272.553 88.1485C273.287 85.4088 271.593 82.5744 268.77 81.8179L266.111 91.7391Z" fill="#EACFBE"/>
<path fill-rule="evenodd" clip-rule="evenodd" d="M220.093 79.4089C217.27 78.6524 215.575 75.8179 216.309 73.0783C217.044 70.3386 219.928 68.7311 222.752 69.4877L220.093 79.4089Z" stroke="#353742" stroke-width="2" stroke-linecap="round" stroke-linejoin="round"/>
<path fill-rule="evenodd" clip-rule="evenodd" d="M266.111 91.7391C268.935 92.4956 271.819 90.8882 272.553 88.1485C273.287 85.4088 271.593 82.5744 268.77 81.8179L266.111 91.7391Z" stroke="#353742" stroke-width="2" stroke-linecap="round" stroke-linejoin="round"/>
<path fill-rule="evenodd" clip-rule="evenodd" d="M234.182 47.2047C234.182 47.2047 246.805 67.2858 268.908 54.0269L261.433 47.7285C261.433 47.7285 254.522 43.3593 254.264 43.3748C254.006 43.3904 241.275 40.4866 241.293 40.8935C241.441 44.3426 235.7 38.2071 235.616 38.5228C235.531 38.8386 234.182 47.2047 234.182 47.2047Z" fill="#AA6F5C"/>
<path d="M235.582 48.8777C239.014 53.118 249.902 63.9002 266.672 55.5585" stroke="#353742" stroke-width="2" stroke-linecap="round" stroke-linejoin="round"/>
<path d="M244.619 83.3228C244.029 83.7152 243.348 83.8676 242.694 83.6922C242.04 83.5169 241.526 83.0438 241.211 82.4087" stroke="#353742" stroke-width="2" stroke-linecap="round" stroke-linejoin="round"/>
<path fill-rule="evenodd" clip-rule="evenodd" d="M236.165 73.968C235.798 75.3377 234.356 76.1416 232.944 75.7633C231.532 75.385 230.685 73.9677 231.052 72.598C231.419 71.2282 232.861 70.4244 234.273 70.8027C235.685 71.181 236.532 72.5982 236.165 73.968Z" fill="#353742"/>
<path fill-rule="evenodd" clip-rule="evenodd" d="M259.173 80.133C258.806 81.5028 257.364 82.3066 255.952 81.9283C254.54 81.55 253.693 80.1328 254.06 78.763C254.427 77.3933 255.869 76.5894 257.281 76.9677C258.693 77.346 259.54 78.7633 259.173 80.133Z" fill="#353742"/>
<path d="M255.61 72.9757C256.396 72.6407 257.406 72.5707 258.433 72.8459C259.414 73.1087 260.224 73.6365 260.742 74.2779" stroke="#353742" stroke-width="2" stroke-linecap="round" stroke-linejoin="round"/>
<path d="M232.603 66.8107C233.387 66.4755 234.398 66.4056 235.426 66.681C236.406 66.9437 237.217 67.4715 237.734 68.1129" stroke="#353742" stroke-width="2" stroke-linecap="round" stroke-linejoin="round"/>
<path d="M237.241 90.4088C237.241 90.4088 244.029 94.6959 249.665 91.7631" stroke="#353742" stroke-width="2" stroke-linecap="round" stroke-linejoin="round"/>
<path d="M237.033 50.2751C237.033 50.2751 229.251 52.7936 223.195 67.8341" stroke="#353742" stroke-width="2" stroke-linecap="round" stroke-linejoin="round"/>
<path d="M264.579 56.7695C264.579 56.7695 271.41 63.1501 269.381 79.5351L266.324 90.9455C263.026 103.255 250.05 110.475 237.343 107.07C224.636 103.665 217.009 90.9253 220.307 78.6154L223.188 68.9281" stroke="#353742" stroke-width="2" stroke-linecap="round" stroke-linejoin="round"/>
<path fill-rule="evenodd" clip-rule="evenodd" d="M99.3045 7.75635C95.4128 7.75635 92.2578 10.9192 92.2578 14.8206V95.0897C92.2578 98.991 95.4128 102.408 99.3045 102.408L141.993 102.882L151.73 113.151C152.587 114.164 154.146 114.164 155.002 113.151L164.513 102.882H208.504C212.396 102.882 214.81 98.991 214.81 95.0897V14.8206C214.81 10.9192 211.655 7.75635 207.763 7.75635H99.3045Z" fill="#F9F9F9"/>
<path fill-rule="evenodd" clip-rule="evenodd" d="M188.055 55.6548C188.055 74.4828 172.793 89.7454 153.965 89.7454C135.137 89.7454 119.875 74.4828 119.875 55.6548C119.875 36.8275 135.137 21.5649 153.965 21.5649C172.793 21.5649 188.055 36.8275 188.055 55.6548Z" fill="#E8E5EE"/>
<path fill-rule="evenodd" clip-rule="evenodd" d="M207.763 8.61914H99.3045C95.4128 8.61914 92.2578 11.7915 92.2578 15.7046V96.2145C92.2578 100.128 95.4128 103.3 99.3045 103.3H142.429L151.286 113.805C152.375 115.096 154.356 115.096 155.446 113.805L164.303 103.3H207.763C211.655 103.3 214.81 100.128 214.81 96.2145V15.7046C214.81 11.7915 211.655 8.61914 207.763 8.61914Z" stroke="#353742" stroke-width="2" stroke-linecap="round" stroke-linejoin="round"/>
<path fill-rule="evenodd" clip-rule="evenodd" d="M182.015 75.0735H125.488V44.3142L122.465 42.9348L125.488 40.4739V29.9325C125.488 14.3485 138.111 1.71484 153.683 1.71484H153.82C169.392 1.71484 182.015 14.3485 182.015 29.9325V75.0735Z" fill="#F2B288"/>
<path fill-rule="evenodd" clip-rule="evenodd" d="M128.959 37.2949V33.0203C128.959 17.405 141.669 4.74594 157.347 4.74594H157.484C164.548 4.74594 171.005 7.32196 175.973 11.5741C170.767 5.54113 163.055 1.71484 154.441 1.71484H154.304C138.625 1.71484 125.916 14.3739 125.916 29.9892V40.5518L126.422 39.8471L127.143 39.2036L127.92 38.188L128.959 37.2949Z" fill="#E29E79"/>
<path fill-rule="evenodd" clip-rule="evenodd" d="M182.731 47.7433C182.731 47.7433 183.359 45.5288 181.932 45.8623C180.506 46.1958 178.603 44.6647 178.603 47.3962C178.603 50.1284 181.481 65.5704 168.205 75.65H181.535C181.535 75.65 183.005 77.388 182.868 72.3023L182.731 47.7433Z" fill="#E29E79"/>
<path d="M125.916 40.4739V29.9325C125.916 14.3485 138.636 1.71484 154.328 1.71484H154.465C170.157 1.71484 182.877 14.3485 182.877 29.9325V75.0735H125.916V44.3142" stroke="#353742" stroke-width="2" stroke-linecap="round" stroke-linejoin="round"/>
<path fill-rule="evenodd" clip-rule="evenodd" d="M166.171 76.8893L160.239 79.7369C156.412 81.5742 151.96 81.5742 148.133 79.7369L142.202 76.8893C136.997 74.3897 133.233 69.6247 132.001 63.9736L126.779 40.0191L137.486 29.911L169.895 28.4692L175.679 40.5687L180.288 46.0074L176.371 63.9736C175.14 69.6247 171.376 74.3897 166.171 76.8893Z" fill="#F7E4D5"/>
<path fill-rule="evenodd" clip-rule="evenodd" d="M163.994 77.5597L159.119 79.8994C155.742 81.52 151.814 81.52 148.437 79.8994L143.562 77.5597C137.249 74.5293 132.685 68.7526 131.19 61.9009L126.872 42.0973C126.572 40.7228 127.014 39.2926 128.035 38.3282L136.008 30.8041C136.705 30.1466 137.614 29.7616 138.571 29.7183L166.57 28.4732C168.302 28.3966 169.887 29.4485 170.492 31.0772L173.67 39.6342C173.879 40.1961 174.211 40.7038 174.642 41.12L178.202 44.5597C179.201 45.5235 179.629 46.9381 179.333 48.2957L176.366 61.9009C174.872 68.7526 170.307 74.5293 163.994 77.5597Z" stroke="#353742" stroke-width="2" stroke-linecap="round" stroke-linejoin="round"/>
<path fill-rule="evenodd" clip-rule="evenodd" d="M182.878 45.2402C172.147 48.3126 166.101 36.1274 163.532 30.9924C160.962 25.8575 158.091 30.9924 158.091 30.9924C137.989 53.0416 123.328 42.9229 123.328 42.9229C129.072 39.1476 130.432 34.0133 130.432 34.0133L131.556 28.3382L133.252 22.2381L158.69 12.0713L164.965 13.2574L177.175 24.6104C177.175 24.6104 179.153 36.0765 179.493 37.9404C179.706 39.111 179.543 42.5521 180.466 44.3089C180.688 44.7326 181.914 44.6018 182.074 44.8986C182.31 45.3317 182.878 45.2402 182.878 45.2402Z" fill="#F2B288"/>
<path d="M129.568 33.8469C129.568 33.8469 128.208 39.0541 122.465 42.8837C122.465 42.8837 137.126 53.1453 157.227 30.7838C157.227 30.7838 160.099 25.576 162.669 30.7838C165.238 35.991 171.284 48.3499 182.015 45.2332" stroke="#353742" stroke-width="2" stroke-linecap="round" stroke-linejoin="round"/>
<path fill-rule="evenodd" clip-rule="evenodd" d="M141.451 56.9498V56.9498C136.207 56.9498 131.957 52.5045 131.957 47.021V43.9455C131.957 41.5946 133.779 39.689 136.027 39.689H146.874C149.122 39.689 150.944 41.5946 150.944 43.9455V47.021C150.944 52.5045 146.694 56.9498 141.451 56.9498Z" stroke="#353742" stroke-width="2" stroke-linecap="round" stroke-linejoin="round"/>
<path fill-rule="evenodd" clip-rule="evenodd" d="M166.48 56.9498V56.9498C161.237 56.9498 156.986 52.5045 156.986 47.021V43.9455C156.986 41.5946 158.808 39.689 161.056 39.689H171.903C174.151 39.689 175.973 41.5946 175.973 43.9455V47.021C175.973 52.5045 171.723 56.9498 166.48 56.9498Z" stroke="#353742" stroke-width="2" stroke-linecap="round" stroke-linejoin="round"/>
<path fill-rule="evenodd" clip-rule="evenodd" d="M144.04 48.3191C144.04 49.749 142.88 50.9082 141.45 50.9082C140.021 50.9082 138.861 49.749 138.861 48.3191C138.861 46.8893 140.021 45.73 141.45 45.73C142.88 45.73 144.04 46.8893 144.04 48.3191Z" fill="#353742"/>
<path fill-rule="evenodd" clip-rule="evenodd" d="M169.069 48.3191C169.069 49.749 167.91 50.9082 166.48 50.9082C165.05 50.9082 163.891 49.749 163.891 48.3191C163.891 46.8893 165.05 45.73 166.48 45.73C167.91 45.73 169.069 46.8893 169.069 48.3191Z" fill="#353742"/>
<path d="M156.124 57.8133C155.55 58.3495 154.795 58.6755 153.967 58.6755C153.138 58.6755 152.382 58.3495 151.809 57.8125" stroke="#353742" stroke-width="2" stroke-linecap="round" stroke-linejoin="round"/>
<path fill-rule="evenodd" clip-rule="evenodd" d="M147.492 63.3192C147.492 63.3192 149.363 62.6787 150.967 61.8375C152.57 60.9956 153.862 61.156 154.397 61.8375C154.931 61.156 156.223 60.9956 157.826 61.8375C159.43 62.6787 161.301 63.3192 161.301 63.3192L159.754 63.986L158.674 65.431L156.402 65.5512C156.402 65.5512 153.173 65.4713 152.839 65.5512C152.504 65.6311 150.05 65.5241 150.099 65.4713C150.364 65.1885 149.351 64.5268 149.351 64.5268L147.492 63.3192Z" fill="#F4C3D9"/>
<path fill-rule="evenodd" clip-rule="evenodd" d="M147.492 62.9907C147.492 62.9907 154.046 74.6418 161.301 62.9907L154.733 65.2355L147.492 62.9907Z" fill="#F4C3D9"/>
<path d="M158.712 63.8548C157.756 64.8782 155.796 65.5801 153.534 65.5801C151.271 65.5801 149.311 64.8782 148.355 63.854" stroke="#353742" stroke-width="2" stroke-linecap="round" stroke-linejoin="round"/>
<path d="M151.809 45.73H156.987" stroke="#353742" stroke-width="2" stroke-linecap="round" stroke-linejoin="round"/>
</svg>
