<svg width="54" height="52" viewBox="0 0 54 52" fill="none" xmlns="http://www.w3.org/2000/svg">
  <path d="M33.9156 36.7127V37.7127H35.6743L34.7749 36.2014L33.9156 36.7127ZM24.7489 36.7127L24.0389 37.4169L24.3323 37.7127H24.7489V36.7127ZM23.9156 35.8724L23.1833 36.5534L23.1942 36.5652L23.2056 36.5766L23.9156 35.8724ZM17.6657 29.1502L18.398 28.4693L18.387 28.4575L18.3757 28.446L17.6657 29.1502ZM13.9157 29.1502L14.6257 29.8543L13.9157 29.1502ZM13.9157 32.5113L14.6569 31.8401L14.5749 31.7495L14.4736 31.6814L13.9157 32.5113ZM22.6656 42.1746L21.9243 42.8458L21.9396 42.8627L21.9556 42.8788L22.6656 42.1746ZM24.7489 43.0149L24.9316 42.0317L24.841 42.0149H24.7489V43.0149ZM40.5822 45.9559L40.3996 46.9391L41.4644 47.1369L41.5768 46.0598L40.5822 45.9559ZM41.4155 37.9732L40.5196 37.5289L40.4396 37.6902L40.4209 37.8693L41.4155 37.9732ZM40.9989 35.8724L41.8948 35.4282L41.8645 35.3673L41.8263 35.311L40.9989 35.8724ZM49.5 51L49.3822 51.993L49.4409 52H49.5V51ZM42.4167 50.1597L42.5345 49.1667L42.4758 49.1597H42.4167V50.1597ZM40.3334 48.059L39.3416 47.9307L39.3334 47.9946V48.059H40.3334ZM41.5834 38.3957L42.5751 38.524L42.5834 38.4601V38.3957H41.5834ZM51.1667 38.3957H50.1667V38.4338L50.1696 38.4717L51.1667 38.3957ZM52 49.3194L52.8959 49.7636L53.018 49.5174L52.9971 49.2433L52 49.3194ZM45.1664 26.8883H3.49998V28.8883H45.1664V26.8883ZM3.49998 26.8883C3.20318 26.8883 2.82055 26.7284 2.49129 26.3964C2.16255 26.0649 2 25.6753 2 25.3674H0C0 26.3199 0.462446 27.1908 1.0712 27.8047C1.67943 28.418 2.54679 28.8883 3.49998 28.8883V26.8883ZM2 25.3674C2 25.0595 2.16254 24.67 2.49128 24.3385C2.82053 24.0065 3.20316 23.8466 3.49998 23.8466V21.8466C2.54681 21.8466 1.67945 22.3169 1.07121 22.9302C0.462451 23.544 0 24.4149 0 25.3674H2ZM3.49998 23.8466H45.1664V21.8466H3.49998V23.8466ZM45.1664 23.8466C45.4633 23.8466 45.8459 24.0065 46.1751 24.3385C46.5039 24.67 46.6664 25.0595 46.6664 25.3674H48.6664C48.6664 24.4149 48.204 23.544 47.5952 22.9302C46.987 22.3169 46.1196 21.8466 45.1664 21.8466V23.8466ZM46.6664 25.3674C46.6664 25.9392 46.4634 26.2932 46.2177 26.5134C45.9543 26.7496 45.5761 26.8883 45.1664 26.8883V28.8883C46.0068 28.8883 46.8786 28.6069 47.5526 28.0027C48.2444 27.3826 48.6664 26.4762 48.6664 25.3674H46.6664ZM5.33425 22.4267C5.33425 13.4076 13.5398 5.7806 23.9175 5.7806V3.7806C12.6287 3.7806 3.33425 12.119 3.33425 22.4267H5.33425ZM23.9175 5.7806C34.2952 5.7806 42.5007 13.4076 42.5007 22.4267H44.5007C44.5007 12.119 35.2063 3.7806 23.9175 3.7806V5.7806ZM20.3349 4.78134C20.3349 3.41004 21.7749 2 23.9182 2V0C21.0615 0 18.3349 1.95119 18.3349 4.78134H20.3349ZM23.9182 2C26.0615 2 27.5015 3.41004 27.5015 4.78134H29.5015C29.5015 1.95119 26.7748 0 23.9182 0V2ZM28.0562 28.8212L33.0562 37.2241L34.7749 36.2014L29.775 27.7985L28.0562 28.8212ZM33.9156 35.7127H24.7489V37.7127H33.9156V35.7127ZM25.459 36.0086L24.6257 35.1683L23.2056 36.5766L24.0389 37.4169L25.459 36.0086ZM24.648 35.1915L18.398 28.4693L16.9333 29.8311L23.1833 36.5534L24.648 35.1915ZM18.3757 28.446C17.2582 27.3192 14.946 26.6911 13.2056 28.446L14.6257 29.8543C15.3854 29.0883 16.4064 29.3005 16.9556 29.8543L18.3757 28.446ZM13.2056 28.446C12.6336 29.0228 12.2105 29.8694 12.1378 30.7484C12.0616 31.67 12.3782 32.6827 13.3578 33.3412L14.4736 31.6814C14.2032 31.4996 14.103 31.2519 14.131 30.9131C14.1625 30.5317 14.3644 30.1178 14.6257 29.8543L13.2056 28.446ZM13.1744 33.1825L21.9243 42.8458L23.4069 41.5034L14.6569 31.8401L13.1744 33.1825ZM21.9556 42.8788C22.5464 43.4746 23.6303 44.0149 24.7489 44.0149V42.0149C24.4945 42.0149 24.2131 41.949 23.9477 41.8343C23.6781 41.7178 23.4786 41.5742 23.3757 41.4705L21.9556 42.8788ZM24.5663 43.9981L40.3996 46.9391L40.7648 44.9728L24.9316 42.0317L24.5663 43.9981ZM41.5768 46.0598L42.4101 38.077L40.4209 37.8693L39.5876 45.8521L41.5768 46.0598ZM42.3114 38.4174C42.6331 37.7687 42.6585 37.1816 42.4692 36.6089C42.3885 36.3651 42.2756 36.1441 42.1805 35.966C42.0743 35.7671 41.9903 35.621 41.8948 35.4282L40.103 36.3167C40.2157 36.5441 40.3401 36.7656 40.4162 36.9081C40.5034 37.0712 40.5467 37.1654 40.5702 37.2367C40.5894 37.2946 40.5888 37.3184 40.5877 37.3325C40.5863 37.3502 40.579 37.4092 40.5196 37.5289L42.3114 38.4174ZM41.8263 35.311L36.4097 27.3282L34.7547 28.4512L40.1714 36.4339L41.8263 35.311ZM49.6178 50.007L42.5345 49.1667L42.2989 51.1528L49.3822 51.993L49.6178 50.007ZM42.4167 49.1597C42.0215 49.1597 41.7687 49.0315 41.6163 48.8779C41.4633 48.7235 41.3334 48.4645 41.3334 48.059H39.3334C39.3334 48.914 39.6202 49.7053 40.1963 50.2862C40.7731 50.8678 41.5619 51.1597 42.4167 51.1597V49.1597ZM41.3251 48.1873L42.5751 38.524L40.5916 38.2674L39.3416 47.9307L41.3251 48.1873ZM42.5834 38.3957C42.5834 37.9902 42.7133 37.7311 42.8663 37.5768C43.0187 37.4232 43.2715 37.2949 43.6667 37.2949V35.2949C42.812 35.2949 42.0231 35.5868 41.4463 36.1685C40.8702 36.7494 40.5834 37.5407 40.5834 38.3957H42.5834ZM43.6667 37.2949H49.0833V35.2949H43.6667V37.2949ZM49.0833 37.2949C49.4786 37.2949 49.7314 37.4232 49.8837 37.5768C50.0368 37.7311 50.1667 37.9902 50.1667 38.3957H52.1667C52.1667 37.5407 51.8799 36.7494 51.3038 36.1685C50.7269 35.5868 49.9381 35.2949 49.0833 35.2949V37.2949ZM50.1696 38.4717L51.0029 49.3954L52.9971 49.2433L52.1638 38.3196L50.1696 38.4717ZM51.1041 48.8751C50.7872 49.5142 50.2362 50 49.5 50V52C51.2638 52 52.3795 50.8051 52.8959 49.7636L51.1041 48.8751Z" fill="#201E21"/>
</svg>
